<?xml version="1.0" encoding="utf-8" ?><svg xmlns="http://www.w3.org/2000/svg" xmlns:xlink="http://www.w3.org/1999/xlink" width="845" height="712" viewBox="0 0 845 712"><clipPath id="cl_3"><rect width="845" height="712"/></clipPath><g clip-path="url(#cl_3)"><path transform="translate(-83 -54)" d="M177.66 0L845.713 0C851.438 1.81096 858.75 2.86429 864.727 4.03775C872.025 5.44929 879.226 7.31832 886.289 9.63377C934.817 26.0038 975.347 60.1429 999.725 105.184C1007.02 118.376 1012.69 132.404 1016.61 146.962C1018.46 154.108 1022.33 182.377 1024 185.112L1024 838.893L1023.83 839.535C1022.47 844.842 1021.71 851.688 1020.78 857.219C1019.41 865.027 1017.61 872.753 1015.38 880.36C1001.26 927.445 967.56 970.028 925.517 995.335C908.227 1005.78 889.435 1013.5 869.8 1018.24C863.053 1019.87 850.218 1021.94 844.275 1024L179.65 1024C172.627 1021.73 162.497 1020.11 155.014 1018.37C140.725 1015.13 126.88 1010.17 113.776 1003.62C64.5533 978.809 27.1295 935.552 9.65743 883.274C5.9554 872.076 4.18372 860.908 2.0823 849.364C1.55594 846.473 1.00131 843.479 0 840.72L0 184.566C2.10709 180.306 2.9728 165.867 4.21969 159.93C8.24133 141.004 14.9496 122.75 24.1406 105.724C53.6634 51.0295 106.074 11.8504 167.877 2.28651C170.671 1.85424 174.45 0.986631 177.121 0.170299L177.66 0Z"/><path fill="#FECF78" transform="translate(-83 -54)" d="M518.387 80.2827L519.607 82.4803L521.072 136.839C521.439 148.335 522.246 163.22 522.262 174.516C522.526 176.253 522.273 176.939 523.282 177.801C532.329 178.946 541.388 179.992 550.458 180.939C554.683 181.416 560.845 181.922 564.821 182.806C607.362 187.257 648.294 193.576 689.159 206.894C692.968 208.135 705.091 212.02 708.398 213.764C715.691 215.857 725.538 220.097 732.527 223.141C762.221 236.151 790.481 252.214 816.852 271.072C821.395 274.314 829.279 279.896 833.338 283.727C851.568 296.153 885.815 337.932 894.255 358.732C896.262 362.258 899.275 369.603 902.108 371.439C904.66 371.326 905.282 366.963 906.121 364.618C907.636 366.849 907.957 372.702 908.868 375.518C912.799 387.674 911.959 400.219 912.042 412.792C912.192 435.609 912.907 465.066 900.055 485.076C898.445 483.104 898.785 482.172 896.657 480.97C890.59 481.29 888.736 493.086 884.887 496.106C857.096 536.003 816.036 567.317 772.715 588.73C760.817 594.61 748.645 602.027 736.561 607.292C670.775 635.952 598.658 646.81 527.359 648.735C524.834 648.803 523.492 649.563 521.998 651.487C521.106 647.494 521.753 635.562 522.022 631.38C521.717 625.209 522.767 618.892 522.345 611.89C520.472 610.793 520.576 610.837 518.415 610.574C514.637 611.958 515.972 617.769 515.891 621.274L516.136 628.99L509.374 629.109C509.332 625.184 509.473 620.927 509.525 616.975C509.635 614.67 509.973 613.475 508.613 611.669C506.858 610.518 504.68 610.584 502.501 610.376C493.012 609.512 476.774 610.196 465.92 609.641C440.693 608.136 415.554 605.409 390.592 601.47C385.866 600.727 368.733 596.64 365.462 598.387C352.265 596.48 342.775 593.83 329.936 590.227C327.11 589.316 320.856 588.214 317.387 587.338C312.169 587.011 301.017 583.401 295.762 581.686C269.006 573.176 243.052 562.323 218.202 549.253C209.677 544.66 200.741 537.73 192.403 533.72L181.664 525.867C179.953 524.558 178.257 523.23 176.574 521.886C170.593 523.963 166.039 515.127 160.182 514.889C159.31 514.853 158.819 514.795 157.973 514.593L157.254 514.416L153.839 513.905L153.246 513.674C141.108 505.914 137.631 491.163 125.05 481.137C125.513 484.044 125.848 486.749 126.19 489.667C125.236 486.643 124.024 483.666 122.672 480.796C115.296 465.111 111.48 447.247 112.462 429.899C113.057 419.394 112.975 408.963 112.922 398.432C112.868 387.777 113.029 377.476 116.591 367.284C119.563 358.785 126.288 353.811 130.86 346.482L131.226 345.885C130.507 349.217 129.745 351.113 129.09 354.899C131.555 351.873 133.687 347.805 136.16 344.382C137.558 342.092 140.055 339.301 141.821 337.178C146.743 330.245 154.402 318.94 160.393 313.081C168.807 304.854 180.255 293.093 189.276 286.165C192.792 281.931 201.245 275.446 205.811 271.966C232.206 251.85 263.096 235.863 294.078 224.123C301.968 221.133 309.905 217.323 318.104 214.239C337.676 207.007 357.693 201.041 378.03 196.377C404.653 190.289 431.579 185.609 458.695 182.355C473.517 180.686 487.649 179.914 502.491 178.9C502.461 176.072 502.439 175.158 502.985 172.411C504.884 143.942 503.529 112.858 505.47 84.0251L506.585 84.2138C507.348 113.577 507.02 146.56 509.442 175.711C510.595 175.939 511.396 175.999 512.561 176.107C514.267 175.58 514.542 174.933 515.644 173.519C516.833 168.388 516.382 148.856 516.51 142.825L518.387 80.2827Z"/><path fill="#F4A21F" transform="translate(-83 -54)" d="M521.986 186.589C521.968 182.342 521.983 178.744 522.262 174.516C522.526 176.253 522.273 176.939 523.282 177.801C532.329 178.946 541.388 179.992 550.458 180.939C554.683 181.416 560.845 181.922 564.821 182.806C607.362 187.257 648.294 193.576 689.159 206.894C692.968 208.135 705.091 212.02 708.398 213.764C715.691 215.857 725.538 220.097 732.527 223.141C762.221 236.151 790.481 252.214 816.852 271.072C821.395 274.314 829.279 279.896 833.338 283.727C851.568 296.153 885.815 337.932 894.255 358.732C896.262 362.258 899.275 369.603 902.108 371.439C904.66 371.326 905.282 366.963 906.121 364.618C907.636 366.849 907.957 372.702 908.868 375.518C912.799 387.674 911.959 400.219 912.042 412.792C912.192 435.609 912.907 465.066 900.055 485.076C898.445 483.104 898.785 482.172 896.657 480.97C890.59 481.29 888.736 493.086 884.887 496.106C857.096 536.003 816.036 567.317 772.715 588.73C760.817 594.61 748.645 602.027 736.561 607.292C670.775 635.952 598.658 646.81 527.359 648.735C524.834 648.803 523.492 649.563 521.998 651.487C521.106 647.494 521.753 635.562 522.022 631.38C521.717 625.209 522.767 618.892 522.345 611.89C520.472 610.793 520.576 610.837 518.415 610.574C514.637 611.958 515.972 617.769 515.891 621.274L516.136 628.99L509.374 629.109C509.332 625.184 509.473 620.927 509.525 616.975C509.635 614.67 509.973 613.475 508.613 611.669C506.858 610.518 504.68 610.584 502.501 610.376C493.012 609.512 476.774 610.196 465.92 609.641C440.693 608.136 415.554 605.409 390.592 601.47C385.866 600.727 368.733 596.64 365.462 598.387C352.265 596.48 342.775 593.83 329.936 590.227L332.746 589.013C338.425 591.992 423.277 594.729 434.124 594.419C520.401 591.949 610.42 577.799 690.798 545.622C730.695 529.651 785.576 496.909 802.627 455.601C810.844 435.723 810.753 413.381 802.373 393.572C784.017 350.472 727.118 321.709 685.679 304.832C672.409 299.428 657.045 296.711 643.175 291.066C641.848 281.303 640.488 276.534 637.559 267.314C635.979 262.341 636.25 247.432 638.933 242.993L638.577 242.587C640.501 242.064 640.443 242.112 642.075 240.991C636.582 239.991 622.754 239.372 616.872 239.145C586.324 237.966 553.393 237.015 523.025 240.337L522.967 221.948C522.597 216.172 522.504 210.764 522.414 204.983L521.986 186.589Z"/><defs><linearGradient id="gradient_0" gradientUnits="userSpaceOnUse" x1="743.3476" y1="220.6619" x2="678.88495" y2="312.5307"><stop offset="0" stop-color="#603F0C"/><stop offset="1" stop-color="#B66814"/></linearGradient></defs><path fill="url(#gradient_0)" transform="translate(-83 -54)" d="M521.986 186.589C521.968 182.342 521.983 178.744 522.262 174.516C522.526 176.253 522.273 176.939 523.282 177.801C532.329 178.946 541.388 179.992 550.458 180.939C554.683 181.416 560.845 181.922 564.821 182.806C607.362 187.257 648.294 193.576 689.159 206.894C692.968 208.135 705.091 212.02 708.398 213.764C715.691 215.857 725.538 220.097 732.527 223.141C762.221 236.151 790.481 252.214 816.852 271.072C821.395 274.314 829.279 279.896 833.338 283.727C851.568 296.153 885.815 337.932 894.255 358.732C890.552 357.088 890.021 356.592 887.298 353.726C884.042 350.3 878.821 339.86 874.13 339.54C872.127 337.457 870.321 335.541 868.408 333.366C864.694 329.849 861.041 326.267 857.451 322.622C851.789 317.387 843.668 311.967 838.921 307.367C834.517 305.405 815.4 292.954 810.553 289.712C788.539 277.205 764.597 267.382 740.727 258.999C730.845 255.529 720.98 252.956 711.185 249.678C707.499 248.773 703.804 247.904 700.101 247.072C697.182 247.928 650.7 244.432 646.12 243.174L646.669 242.383L646.352 241.636C644.542 240.942 643.975 241.033 642.075 240.991C636.582 239.991 622.754 239.372 616.872 239.145C586.324 237.966 553.393 237.015 523.025 240.337L522.967 221.948C522.597 216.172 522.504 210.764 522.414 204.983L521.986 186.589Z"/><path fill="#FECF78" transform="translate(-83 -54)" d="M522.967 221.948C552.287 223.205 581.54 225.709 610.647 229.452C620.505 230.756 630.323 232.343 640.09 234.211C645.176 235.163 659.648 238.224 664.145 238.089C676.345 241.844 687.809 243.269 700.101 247.072C697.182 247.928 650.7 244.432 646.12 243.174L646.669 242.383L646.352 241.636C644.542 240.942 643.975 241.033 642.075 240.991C636.582 239.991 622.754 239.372 616.872 239.145C586.324 237.966 553.393 237.015 523.025 240.337L522.967 221.948Z"/><defs><linearGradient id="gradient_1" gradientUnits="userSpaceOnUse" x1="588.80609" y1="208.61147" x2="582.27637" y2="235.11256"><stop offset="0" stop-color="#C6921C"/><stop offset="1" stop-color="#FAAA1D"/></linearGradient></defs><path fill="url(#gradient_1)" transform="translate(-83 -54)" d="M522.414 204.983C529.011 205.099 534.543 206.68 540.83 207.199C554.905 208.36 568.988 209.425 583.034 210.983C587.329 211.46 588.867 210.098 592.736 209.45C593.433 209.333 597.822 210.25 598.804 210.455C600.709 212.306 602.654 213.197 604.858 214.702C609.074 217.581 611.993 219.946 615.328 223.795C627.783 226.574 639.239 230.4 651.283 234.438C655.326 235.793 660.498 236.191 664.145 238.089C659.648 238.224 645.176 235.163 640.09 234.211C630.323 232.343 620.505 230.756 610.647 229.452C581.54 225.709 552.287 223.205 522.967 221.948C522.597 216.172 522.504 210.764 522.414 204.983Z"/><defs><linearGradient id="gradient_2" gradientUnits="userSpaceOnUse" x1="649.08569" y1="215.6541" x2="634.71265" y2="236.13324"><stop offset="0" stop-color="#9B6914"/><stop offset="1" stop-color="#B68218"/></linearGradient></defs><path fill="url(#gradient_2)" transform="translate(-83 -54)" d="M626.975 210.098C628.265 208.908 629.686 207.38 631.615 207.547C633.337 207.696 677.009 234.438 681.057 237.107C683.399 238.652 685.267 241.275 687.711 242.541C694.186 245.894 705.89 245.259 711.185 249.678C707.499 248.773 703.804 247.904 700.101 247.072C687.809 243.269 676.345 241.844 664.145 238.089C660.498 236.191 655.326 235.793 651.283 234.438C639.239 230.4 627.783 226.574 615.328 223.795C611.993 219.946 609.074 217.581 604.858 214.702C602.654 213.197 600.709 212.306 598.804 210.455C612.302 210.85 612.956 212.294 626.975 210.098Z"/><path fill="#582E02" transform="translate(-83 -54)" d="M708.398 213.764C715.691 215.857 725.538 220.097 732.527 223.141C762.221 236.151 790.481 252.214 816.852 271.072C821.395 274.314 829.279 279.896 833.338 283.727C829.997 283.653 825.542 277.654 822.561 276.487C812.644 272.607 803.104 267.346 793.572 262.548C788.66 260.075 783.361 255.482 778.339 252.793C765.577 245.959 754.707 237.345 743.04 228.961C734.247 223.011 717.052 219.696 708.398 213.764Z"/><path fill="#582E02" transform="translate(-83 -54)" d="M521.986 186.589C521.968 182.342 521.983 178.744 522.262 174.516C522.526 176.253 522.273 176.939 523.282 177.801C532.329 178.946 541.388 179.992 550.458 180.939C554.683 181.416 560.845 181.922 564.821 182.806C561.314 183.097 559.351 185.699 556.405 187.666C544.152 184.981 534.511 186.016 521.986 186.589Z"/><path fill="#9B570A" transform="translate(-83 -54)" d="M810.553 289.712C817.076 289.421 836.734 301.705 838.921 307.367C834.517 305.405 815.4 292.954 810.553 289.712Z"/><path fill="#582E02" transform="translate(-83 -54)" d="M857.451 322.622C858.589 321.427 859.386 321.316 860.945 320.787C862.924 321.15 862.019 320.739 863.598 322.357C864.105 324.14 864.056 324.797 864.114 326.609C865.726 328.096 868.465 330.273 869.025 332.23L868.408 333.366C864.694 329.849 861.041 326.267 857.451 322.622Z"/><defs><linearGradient id="gradient_3" gradientUnits="userSpaceOnUse" x1="722.28851" y1="612.28674" x2="698.71704" y2="558.4718"><stop offset="0" stop-color="#532D07"/><stop offset="1" stop-color="#B6670D"/></linearGradient></defs><path fill="url(#gradient_3)" transform="translate(-83 -54)" d="M883.858 485.622L884.878 486.547C884.982 491.578 878.681 496.93 875.1 500.051C879.131 498.553 881.084 496.573 884.887 496.106C857.096 536.003 816.036 567.317 772.715 588.73C760.817 594.61 748.645 602.027 736.561 607.292C670.775 635.952 598.658 646.81 527.359 648.735C524.834 648.803 523.492 649.563 521.998 651.487C521.106 647.494 521.753 635.562 522.022 631.38C521.717 625.209 522.767 618.892 522.345 611.89L522.712 611.358C531.61 609.717 543.818 610.264 552.968 609.923C557.859 609.74 565.083 608.911 569.68 609.125C593.084 607.363 616.513 605.382 639.727 601.857C721.126 589.497 819.993 559.851 875.589 495.26C878.358 492.042 881.334 489.05 883.858 485.622Z"/><path fill="#C56F12" transform="translate(-83 -54)" d="M522.345 611.89L522.712 611.358C531.61 609.717 543.818 610.264 552.968 609.923C557.859 609.74 565.083 608.911 569.68 609.125C573.665 610.434 579.509 608.329 583.116 609.239C576.867 615.694 534.816 632.808 522.608 640.792C522.666 637.576 523.024 634.37 522.022 631.38C521.717 625.209 522.767 618.892 522.345 611.89Z"/><path fill="#582E02" transform="translate(-83 -54)" d="M874.13 339.54C878.821 339.86 884.042 350.3 887.298 353.726C890.021 356.592 890.552 357.088 894.255 358.732C896.262 362.258 899.275 369.603 902.108 371.439C904.66 371.326 905.282 366.963 906.121 364.618C907.636 366.849 907.957 372.702 908.868 375.518C912.799 387.674 911.959 400.219 912.042 412.792C912.192 435.609 912.907 465.066 900.055 485.076C898.445 483.104 898.785 482.172 896.657 480.97C890.59 481.29 888.736 493.086 884.887 496.106C881.084 496.573 879.131 498.553 875.1 500.051C878.681 496.93 884.982 491.578 884.878 486.547L883.858 485.622C886.31 481.285 890.042 476.244 892.742 471.674C900.548 458.463 905.455 443.743 907.135 428.49C910.867 393.544 895.156 365.594 874.13 339.54Z"/><path fill="#E38918" transform="translate(-83 -54)" d="M509.525 616.975C513.033 616.105 513.445 615.372 515.689 612.439C515.537 615.61 515.266 618.152 515.891 621.274L516.136 628.99L509.374 629.109C509.332 625.184 509.473 620.927 509.525 616.975Z"/><path fill="#FDE7B4" transform="translate(-83 -54)" d="M642.075 240.991C643.975 241.033 644.542 240.942 646.352 241.636L646.669 242.383L646.12 243.174C643.816 243.011 641.263 243.031 638.933 242.993L638.577 242.587C640.501 242.064 640.443 242.112 642.075 240.991Z"/><path fill="#F4A21F" transform="translate(-83 -54)" d="M502.985 172.411C503.126 183.192 502.506 194.228 502.416 205.065C502.324 211.007 502.186 216.949 502.002 222.889C489.57 222.902 479.233 223.304 466.846 224.394C461.415 224.871 451.58 225.989 446.739 225.965L445.872 226.017C442.114 229.337 437.681 231.505 433.806 234.564C426.524 240.311 420.8 248.021 415.414 255.496C371.622 267.008 329.063 281.385 289.866 304.881C253.322 326.787 212.541 363.212 215.125 409.745C217.277 448.508 250.071 480.257 281.644 498.957C305.998 513.523 333.663 521.586 360.853 529.029C444.299 550.499 536.92 552.749 620.356 529.885C632.023 526.688 643.214 521.862 654.385 517.315C643.839 525.67 624.243 536.094 612.065 541.968C544.356 574.628 468.861 586.619 394.33 589.663C381.778 590.175 370.334 589.763 357.822 589.216C353.429 589.024 343.9 588.273 340.116 588.461C335.251 587.936 321.456 586.349 317.387 587.338C312.169 587.011 301.017 583.401 295.762 581.686C269.006 573.176 243.052 562.323 218.202 549.253C209.677 544.66 200.741 537.73 192.403 533.72L181.664 525.867C179.953 524.558 178.257 523.23 176.574 521.886C170.593 523.963 166.039 515.127 160.182 514.889C159.31 514.853 158.819 514.795 157.973 514.593L157.254 514.416L153.839 513.905L153.246 513.674C141.108 505.914 137.631 491.163 125.05 481.137C125.513 484.044 125.848 486.749 126.19 489.667C125.236 486.643 124.024 483.666 122.672 480.796C115.296 465.111 111.48 447.247 112.462 429.899C113.057 419.394 112.975 408.963 112.922 398.432C112.868 387.777 113.029 377.476 116.591 367.284C119.563 358.785 126.288 353.811 130.86 346.482L131.226 345.885C130.507 349.217 129.745 351.113 129.09 354.899C131.555 351.873 133.687 347.805 136.16 344.382C137.558 342.092 140.055 339.301 141.821 337.178C146.743 330.245 154.402 318.94 160.393 313.081C168.807 304.854 180.255 293.093 189.276 286.165C192.792 281.931 201.245 275.446 205.811 271.966C232.206 251.85 263.096 235.863 294.078 224.123C301.968 221.133 309.905 217.323 318.104 214.239C337.676 207.007 357.693 201.041 378.03 196.377C404.653 190.289 431.579 185.609 458.695 182.355C473.517 180.686 487.649 179.914 502.491 178.9C502.461 176.072 502.439 175.158 502.985 172.411Z"/><defs><linearGradient id="gradient_4" gradientUnits="userSpaceOnUse" x1="308.44537" y1="230.0771" x2="335.22479" y2="284.72931"><stop offset="0" stop-color="#6C430C"/><stop offset="1" stop-color="#CE921F"/></linearGradient></defs><path fill="url(#gradient_4)" transform="translate(-83 -54)" d="M502.985 172.411C503.126 183.192 502.506 194.228 502.416 205.065C502.324 211.007 502.186 216.949 502.002 222.889C489.57 222.902 479.233 223.304 466.846 224.394C461.415 224.871 451.58 225.989 446.739 225.965L445.872 226.017C427.706 226.515 408.606 229.433 390.678 232.435C385.523 233.298 380.15 234.903 374.984 235.845C298.506 249.8 224.883 273.333 164.574 324.435C164.053 319.478 171.997 314.357 175.11 311.657L174.746 311.181C163.441 310.896 147.884 336.557 143.235 337.705L141.821 337.178C146.743 330.245 154.402 318.94 160.393 313.081C168.807 304.854 180.255 293.093 189.276 286.165C192.792 281.931 201.245 275.446 205.811 271.966C232.206 251.85 263.096 235.863 294.078 224.123C301.968 221.133 309.905 217.323 318.104 214.239C337.676 207.007 357.693 201.041 378.03 196.377C404.653 190.289 431.579 185.609 458.695 182.355C473.517 180.686 487.649 179.914 502.491 178.9C502.461 176.072 502.439 175.158 502.985 172.411Z"/><defs><linearGradient id="gradient_5" gradientUnits="userSpaceOnUse" x1="275.19156" y1="232.05701" x2="281.81918" y2="245.68439"><stop offset="0" stop-color="#4F2B02"/><stop offset="1" stop-color="#68420C"/></linearGradient></defs><path fill="url(#gradient_5)" transform="translate(-83 -54)" d="M189.276 286.165C192.792 281.931 201.245 275.446 205.811 271.966C232.206 251.85 263.096 235.863 294.078 224.123C301.968 221.133 309.905 217.323 318.104 214.239C337.676 207.007 357.693 201.041 378.03 196.377C377.153 199.229 373.182 201.467 370.497 202.761C325.002 224.683 279.26 246.06 233.648 267.737C231.598 268.711 227.344 270.572 225.597 271.728C222.104 273.247 218.62 274.788 215.147 276.353C211.539 277.811 204.112 280.402 201.16 282.356C194.402 286.828 191.037 289.207 183.373 292.444C185.214 290.884 188.687 288.355 189.276 286.165Z"/><defs><linearGradient id="gradient_6" gradientUnits="userSpaceOnUse" x1="474.72702" y1="212.16768" x2="482.54773" y2="229.56853"><stop offset="0" stop-color="#D89F20"/><stop offset="1" stop-color="#FCBC26"/></linearGradient></defs><path fill="url(#gradient_6)" transform="translate(-83 -54)" d="M446.739 225.965C449.276 225.448 454.027 222.376 456.739 221.173C475.324 212.93 481.739 205.088 502.416 205.065C502.324 211.007 502.186 216.949 502.002 222.889C489.57 222.902 479.233 223.304 466.846 224.394C461.415 224.871 451.58 225.989 446.739 225.965Z"/><path fill="#6C3E0B" transform="translate(-83 -54)" d="M225.597 271.728C224.262 274.142 217.681 277.529 215.147 276.353C218.62 274.788 222.104 273.247 225.597 271.728Z"/><path fill="#C56F12" transform="translate(-83 -54)" d="M447.594 211.755C448.948 211.33 448.369 211.234 449.482 211.581C446.198 214.407 427.317 215.634 422.51 214.635C421.087 214.502 420.293 214.389 418.924 214.135C423.292 211.303 432.761 212.846 437.959 212.439C441.175 212.187 444.374 211.952 447.594 211.755Z"/><path fill="#C56F12" transform="translate(-83 -54)" d="M498.849 198.7C500.203 198.476 500.048 198.538 501.451 198.601L501.783 199.201C500.183 200.691 499.262 200.563 496.962 200.887C495.196 201.273 494.096 201.711 492.73 200.877L493.269 200.053C495.44 198.688 496.17 198.861 498.849 198.7Z"/><path fill="#582E02" transform="translate(-83 -54)" d="M143.235 337.705C147.884 336.557 163.441 310.896 174.746 311.181L175.11 311.657C171.997 314.357 164.053 319.478 164.574 324.435L164.294 324.767C160.432 329.276 155.811 333.618 151.713 338.012C129.317 362.027 114.443 392.815 117.16 426.399C119.808 459.132 135.49 481.614 157.672 504.478L164.901 511.881C167.431 513.913 174.328 519.539 176.574 521.886C170.593 523.963 166.039 515.127 160.182 514.889C159.31 514.853 158.819 514.795 157.973 514.593L157.254 514.416L153.839 513.905L153.246 513.674C141.108 505.914 137.631 491.163 125.05 481.137C125.513 484.044 125.848 486.749 126.19 489.667C125.236 486.643 124.024 483.666 122.672 480.796C115.296 465.111 111.48 447.247 112.462 429.899C113.057 419.394 112.975 408.963 112.922 398.432C112.868 387.777 113.029 377.476 116.591 367.284C119.563 358.785 126.288 353.811 130.86 346.482L131.226 345.885C130.507 349.217 129.745 351.113 129.09 354.899C131.555 351.873 133.687 347.805 136.16 344.382C137.558 342.092 140.055 339.301 141.821 337.178L143.235 337.705Z"/><path fill="#C56F12" transform="translate(-83 -54)" d="M153.246 513.674C157.703 507.675 152.93 510.395 152.526 505.608L153.21 504.891C155.129 504.366 155.035 504.417 156.996 504.921C158.366 506.448 158.509 506.102 158.681 507.741C157.804 508.687 157.099 509.063 157.028 510.058C158.726 511.4 160.298 513.046 162.365 513.17C163.308 512.728 164.001 512.402 164.901 511.881C167.431 513.913 174.328 519.539 176.574 521.886C170.593 523.963 166.039 515.127 160.182 514.889C159.31 514.853 158.819 514.795 157.973 514.593L157.254 514.416L153.839 513.905L153.246 513.674Z"/><path fill="#6C3E0B" transform="translate(-83 -54)" d="M141.821 337.178L143.235 337.705C139.883 339.453 139.164 343.821 136.16 344.382C137.558 342.092 140.055 339.301 141.821 337.178Z"/><path transform="translate(-83 -54)" d="M514.626 264.113L523.748 264.541C531.585 265.3 538.139 265.909 545.882 267.595C578.99 274.994 608.695 293.202 630.312 319.348C639.465 330.49 645.615 340.922 651.295 354.093C652.447 356.765 653.676 360.659 654.653 362.845C657.718 374.127 661.915 389.898 662.028 401.353L662.075 417.974L662.097 424.286C661.802 426.643 661.729 428.682 660.752 430.828C661.145 435.835 657.132 447.866 655.364 452.888C655.428 457.313 650.655 465.423 649.173 471.314C642.452 475.548 632.53 479.667 625.009 482.557C584.441 498.147 538.226 504.309 494.914 502.92C476.082 502.316 456.182 498.839 437.914 494.68C437.183 494.515 436.454 494.34 435.727 494.156C406.266 484.27 357.277 468.605 340.649 440.039C345.084 441.849 347.36 446.358 350.649 449.521C353.653 452.41 358.331 453.86 362.301 454.782C364.121 455.188 366.456 456.089 368.284 455.718C370.177 452.556 363.433 447.967 365.807 441.181C366.16 439.54 364.726 431.627 364.313 429.72C363.576 426.178 363.103 422.655 363.133 419.037C361.256 403.034 363.665 386.218 367.74 370.691L370.389 361.914C372.223 356.834 374.583 351.504 376.687 346.497C381.907 337.815 385.188 331.695 391.453 323.415C413.152 294.741 444.506 274.902 479.709 267.57C488.188 265.786 494.233 265.835 502.367 264.72L510.051 264.131L514.626 264.113Z"/><defs><linearGradient id="gradient_7" gradientUnits="userSpaceOnUse" x1="512.56146" y1="430.61722" x2="511.46741" y2="486.38193"><stop offset="0" stop-color="#894C0C"/><stop offset="1" stop-color="#AC6414"/></linearGradient></defs><path fill="url(#gradient_7)" transform="translate(-83 -54)" d="M652.526 435.232C654.881 428.946 656.733 422.24 662.075 417.974L662.097 424.286C661.802 426.643 661.729 428.682 660.752 430.828C661.145 435.835 657.132 447.866 655.364 452.888C655.428 457.313 650.655 465.423 649.173 471.314C642.452 475.548 632.53 479.667 625.009 482.557C584.441 498.147 538.226 504.309 494.914 502.92C476.082 502.316 456.182 498.839 437.914 494.68C437.183 494.515 436.454 494.34 435.727 494.156C406.266 484.27 357.277 468.605 340.649 440.039C345.084 441.849 347.36 446.358 350.649 449.521C353.653 452.41 358.331 453.86 362.301 454.782C364.121 455.188 366.456 456.089 368.284 455.718C370.177 452.556 363.433 447.967 365.807 441.181C366.16 439.54 364.726 431.627 364.313 429.72C363.576 426.178 363.103 422.655 363.133 419.037C366.993 423.282 368.38 430.359 374.038 433.165C394.048 443.09 418.018 449.196 439.696 454.241C498.04 467.819 555.704 461.687 613.233 447.754C624.444 445.096 643.021 441.361 652.526 435.232Z"/><path fill="#E38918" transform="translate(-83 -54)" d="M340.649 440.039C345.084 441.849 347.36 446.358 350.649 449.521C353.653 452.41 358.331 453.86 362.301 454.782C364.121 455.188 366.456 456.089 368.284 455.718C370.177 452.556 363.433 447.967 365.807 441.181C367.345 451.171 368.984 452.736 377.208 458.734C385.912 465.4 395.135 466.738 404.788 470.29C459.28 490.343 519.589 489.984 576.409 482.036C581.588 481.312 586.725 477.59 593.777 478.583C594.858 478.735 601.429 474.424 604.822 474.555L606.008 475.449C608.946 474.644 612.368 472.787 614.724 472.596L616.303 473.789C618.54 473.419 619.587 472.075 621.379 472.048L620.775 473.268C623.575 474.32 632.205 471.114 635.009 469.79C642.196 466.397 650.066 458.736 655.364 452.888C655.428 457.313 650.655 465.423 649.173 471.314C642.452 475.548 632.53 479.667 625.009 482.557C584.441 498.147 538.226 504.309 494.914 502.92C476.082 502.316 456.182 498.839 437.914 494.68C437.183 494.515 436.454 494.34 435.727 494.156C406.266 484.27 357.277 468.605 340.649 440.039Z"/><defs><linearGradient id="gradient_8" gradientUnits="userSpaceOnUse" x1="512.5022" y1="419.41422" x2="512.47156" y2="472.49451"><stop offset="0" stop-color="#321801"/><stop offset="1" stop-color="#6A3D0A"/></linearGradient></defs><path fill="url(#gradient_8)" transform="translate(-83 -54)" d="M652.526 435.232C654.881 428.946 656.733 422.24 662.075 417.974L662.097 424.286C661.802 426.643 661.729 428.682 660.752 430.828C658.888 433.005 654.638 437.958 651.087 439.859C637.895 446.919 621.341 455.485 607.006 459.647C606.086 459.914 602.342 458.853 599.691 459.716L598.871 461.637C595.771 462.853 591.825 464.25 588.574 464.976C585.443 465.675 576.615 463.921 574.384 466.027L574.262 467.59C568.942 471.791 538.602 473.237 530.751 473.619C526.936 473.804 521.02 472.978 516.99 472.924C510.798 472.839 505.434 474.106 499.488 471.995C496.416 472.851 486.619 473.659 484.513 471.201C485.42 469.792 485.7 470.077 487.649 469.303C485.916 468.998 484.041 469.114 482.041 468.798L460.72 465.286C451.948 463.924 441.955 460.841 433.574 461.957C424.547 456.26 419.74 457.894 409.444 457.992C404.675 455.062 400.032 451.93 395.528 448.605L395.87 447.348C393.657 444.772 388.67 446.385 384.697 444.82C383.464 440.63 377.169 440.325 373.655 437.72C370.431 435.331 367.634 431.725 364.313 429.72C363.576 426.178 363.103 422.655 363.133 419.037C366.993 423.282 368.38 430.359 374.038 433.165C394.048 443.09 418.018 449.196 439.696 454.241C498.04 467.819 555.704 461.687 613.233 447.754C624.444 445.096 643.021 441.361 652.526 435.232Z"/><path fill="#582E02" transform="translate(-83 -54)" d="M487.649 469.303C490.883 468.773 508.535 468.841 512.484 469.07C509.682 469.606 501.428 470.782 499.488 471.995C496.416 472.851 486.619 473.659 484.513 471.201C485.42 469.792 485.7 470.077 487.649 469.303Z"/><path fill="#C56F12" transform="translate(-83 -54)" d="M396.49 463.04C401.11 463.698 412.363 467.263 416.118 469.983C412.475 470.027 399.051 465.884 396.49 463.04Z"/><path fill="#C56F12" transform="translate(-83 -54)" d="M627.871 464.489L628.377 464.881L628.074 465.562C625.681 467.143 623.941 467.612 621.26 468.569L620.94 468.363L621.156 467.716C623.562 466.167 625.259 465.554 627.871 464.489Z"/><path fill="#FEFEFE" transform="translate(-83 -54)" d="M493.471 364.589C492.232 362.727 491.232 357.274 493.714 355.856L495.814 356.698C497.68 357.327 499.571 357.881 501.482 358.359C509.693 360.377 521.794 360.433 529.244 355.931C533.148 357.221 532.512 362.386 530.512 364.802L531.23 365.538C531.561 369.109 531.334 372.243 531.593 375.319C525.046 375.51 514.173 379.969 505.717 378.327C501.319 377.473 498.422 375.952 494.95 375.169L494.288 375.025C491.912 371.738 492.733 369.127 493.256 365.132L493.471 364.589Z"/><path fill="#FEFEFE" transform="translate(-83 -54)" d="M493.471 364.589C492.232 362.727 491.232 357.274 493.714 355.856L495.814 356.698C497.68 357.327 499.571 357.881 501.482 358.359C509.693 360.377 521.794 360.433 529.244 355.931C533.148 357.221 532.512 362.386 530.512 364.802C517.086 369.908 506.761 369.001 493.471 364.589Z"/><path fill="#222224" transform="translate(-83 -54)" d="M493.471 364.589C506.761 369.001 517.086 369.908 530.512 364.802L531.23 365.538C517.609 370.65 506.674 371.135 493.256 365.132L493.471 364.589Z"/><path fill="#FEFEFE" transform="translate(-83 -54)" d="M496.441 356.103C485.833 348.675 501.656 344.423 507.654 344.37C514.801 344.245 524.549 344.437 530.498 348.814C533.347 350.91 530.82 353.883 529.182 355.52C518.263 358.983 507.526 359.119 496.441 356.103Z"/><path fill="#FEFEFE" transform="translate(-83 -54)" d="M493.666 376.14C509.192 380.95 516.139 381.29 531.373 376C531.609 378.242 531.456 382.44 531.429 384.868C524.922 387.25 498.684 392.589 492.769 382.473C492.125 381.371 492.857 377.402 493.666 376.14Z"/><path fill="#FEFEFE" transform="translate(-83 -54)" d="M492.668 385.801C502.228 389.661 513.229 391.258 523.309 388.545C525.092 388.066 529.745 386.574 531.309 386.778C531.947 389.084 530.823 391.651 529.766 393.68C524.895 398.266 515.884 399.442 509.369 398.925C500.861 398.249 491.539 396.308 492.668 385.801Z"/><path fill="#FEFEFE" transform="translate(-83 -54)" d="M518.889 419.142C523.008 420.541 531.357 425.133 536.49 427.225L536.542 433.37C531.917 435.248 528.26 437.109 523.832 439.358C521.832 440.104 520.675 440.896 518.976 439.507C520.045 434.729 527.905 431.944 531.889 430.53C525.982 426.623 520.968 426.977 518.889 419.142Z"/><path fill="#FEFEFE" transform="translate(-83 -54)" d="M502.84 419.953C504.722 420.265 504.047 419.81 505.104 421.069C504.469 424.721 495.743 428.404 492.424 430.023C495.632 431.652 504.63 435.535 505.385 438.883C504.702 440.346 505.212 439.743 503.627 440.587C498.49 438.025 492.705 435.471 487.465 433.031L487.509 427.49C492.554 425.133 497.822 422.431 502.84 419.953Z"/><path fill="#FEFEFE" transform="translate(-83 -54)" d="M518.387 80.2827L519.607 82.4803L521.072 136.839C521.439 148.335 522.246 163.22 522.262 174.516C521.983 178.744 521.968 182.342 521.986 186.589L522.414 204.983C522.504 210.764 522.597 216.172 522.967 221.948L523.025 240.337C553.393 237.015 586.324 237.966 616.872 239.145C622.754 239.372 636.582 239.991 642.075 240.991C640.443 242.112 640.501 242.064 638.577 242.587C611.141 241.769 583.684 243.286 556.504 247.121C546.065 248.568 533.252 251.623 523.787 252.709L523.748 264.541L514.626 264.113L510.051 264.131L502.367 264.72C494.233 265.835 488.188 265.786 479.709 267.57C444.506 274.902 413.152 294.741 391.453 323.415C385.188 331.695 381.907 337.815 376.687 346.497C374.583 351.504 372.223 356.834 370.389 361.914L367.74 370.691C363.665 386.218 361.256 403.034 363.133 419.037C363.103 422.655 363.576 426.178 364.313 429.72C364.726 431.627 366.16 439.54 365.807 441.181C363.433 447.967 370.177 452.556 368.284 455.718C366.456 456.089 364.121 455.188 362.301 454.782C358.331 453.86 353.653 452.41 350.649 449.521C347.36 446.358 345.084 441.849 340.649 440.039C357.277 468.605 406.266 484.27 435.727 494.156C428.961 495.429 403.333 488.346 395.358 485.996C362.626 476.353 323.384 454.913 306.852 424.275C297.649 407.523 295.709 387.733 301.482 369.512C318.803 313.376 401.853 277.52 453.755 262.117C467.154 258.14 487.229 255.024 500.185 249.471C501.186 249.042 501.128 246.708 501.255 245.479C501.615 242.415 501.956 239.977 501.904 236.885L502.002 222.889C502.186 216.949 502.324 211.007 502.416 205.065C502.506 194.228 503.126 183.192 502.985 172.411C504.884 143.942 503.529 112.858 505.47 84.0251L506.585 84.2138C507.348 113.577 507.02 146.56 509.442 175.711C510.595 175.939 511.396 175.999 512.561 176.107C514.267 175.58 514.542 174.933 515.644 173.519C516.833 168.388 516.382 148.856 516.51 142.825L518.387 80.2827Z"/><path fill="#C56F12" transform="translate(-83 -54)" d="M356.149 372.528C360.705 368.49 362.152 368.278 367.74 370.691C363.665 386.218 361.256 403.034 363.133 419.037C363.103 422.655 363.576 426.178 364.313 429.72C364.726 431.627 366.16 439.54 365.807 441.181C363.433 447.967 370.177 452.556 368.284 455.718C366.456 456.089 364.121 455.188 362.301 454.782C358.331 453.86 353.653 452.41 350.649 449.521C347.36 446.358 345.084 441.849 340.649 440.039C331.853 431.482 330.131 410.816 334.175 399.584C337.919 397.401 340.563 389.608 343.541 385.837C347.444 380.893 351.676 376.93 356.149 372.528Z"/><path fill="#FECF78" transform="translate(-83 -54)" d="M500.954 258.279C500.966 260.535 500.609 263.185 502.367 264.72C494.233 265.835 488.188 265.786 479.709 267.57C444.506 274.902 413.152 294.741 391.453 323.415C385.188 331.695 381.907 337.815 376.687 346.497C374.36 340.398 379.993 327.435 383.531 322.258C407.53 287.145 461.522 267.722 500.954 258.279Z"/><defs><linearGradient id="gradient_9" gradientUnits="userSpaceOnUse" x1="512.64209" y1="192.45445" x2="512.17419" y2="211.54105"><stop offset="0" stop-color="#A95300"/><stop offset="1" stop-color="#E28A18"/></linearGradient></defs><path fill="url(#gradient_9)" transform="translate(-83 -54)" d="M509.509 191.839C511.448 191.833 514.121 191.999 515.865 191.375C515.7 199.002 515.483 206.628 515.212 214.253C514.132 212.073 514.946 212.812 512.706 211.935C510.508 212.671 510.444 212.696 509.911 215.126C509.691 207.365 509.557 199.603 509.509 191.839Z"/><path fill="#FECF78" transform="translate(-83 -54)" d="M509.938 218.967C511.572 220.155 512.975 221.129 514.678 222.213C514.835 227.929 514.408 233.725 514.593 239.306C512.5 239.881 511.995 240.222 510.04 239.595C510.122 232.82 509.979 225.764 509.938 218.967Z"/><path fill="#582E02" transform="translate(-83 -54)" d="M515.644 173.519C516.204 176.898 516.014 183.314 515.963 186.969L509.433 187.058C509.217 183.918 508.781 178.666 509.442 175.711C510.595 175.939 511.396 175.999 512.561 176.107C514.267 175.58 514.542 174.933 515.644 173.519Z"/><path fill="#E38918" transform="translate(-83 -54)" d="M356.408 370.437L356.149 372.528C351.676 376.93 347.444 380.893 343.541 385.837C340.563 389.608 337.919 397.401 334.175 399.584C336.899 387.523 347.285 377.981 356.408 370.437Z"/><path fill="#E38918" transform="translate(-83 -54)" d="M356.408 370.437C360.231 367.643 366.001 363.068 370.389 361.914L367.74 370.691C362.152 368.278 360.705 368.49 356.149 372.528L356.408 370.437Z"/><path fill="#FDE7B4" transform="translate(-83 -54)" d="M514.593 239.306C514.902 243.023 515.562 246.564 512.57 249.469L511.69 249.395C509.286 246.779 509.959 243.234 510.04 239.595C511.995 240.222 512.5 239.881 514.593 239.306Z"/><path fill="#E38918" transform="translate(-83 -54)" d="M509.911 215.126C510.444 212.696 510.508 212.671 512.706 211.935C514.946 212.812 514.132 212.073 515.212 214.253C515.112 216.265 515.021 220.391 514.678 222.213C512.975 221.129 511.572 220.155 509.938 218.967L509.911 215.126Z"/><path fill="#FDE7B4" transform="translate(-83 -54)" d="M510.051 264.131C510.022 260.197 509.621 258.284 511.905 255.093L512.705 254.694C515.432 256.601 514.678 261.1 514.626 264.113L510.051 264.131Z"/><path fill="#9B570A" transform="translate(-83 -54)" d="M509.433 187.058L515.963 186.969L515.865 191.375C514.121 191.999 511.448 191.833 509.509 191.839L509.433 187.058Z"/><path fill="#C56F12" transform="translate(-83 -54)" d="M654.653 362.845C656.711 364.046 658.438 365.402 660.371 366.687C712.821 401.579 702.389 443.53 649.173 471.314C650.655 465.423 655.428 457.313 655.364 452.888C657.132 447.866 661.145 435.835 660.752 430.828C661.729 428.682 661.802 426.643 662.097 424.286L662.075 417.974L662.028 401.353C661.915 389.898 657.718 374.127 654.653 362.845Z"/><path fill="#9B570A" transform="translate(-83 -54)" d="M662.028 401.353C663.713 403.73 679.256 410.33 670.257 417.056C666.19 420.096 663.182 418.157 662.097 424.286L662.075 417.974L662.028 401.353Z"/><path fill="#FDE7B4" transform="translate(-83 -54)" d="M469.664 246.627C476.152 243.988 492.737 242.34 500.713 240.813C501.665 239.929 501.599 238.496 501.904 236.885C501.956 239.977 501.615 242.415 501.255 245.479C501.113 244.435 500.985 243.799 500.771 242.775C497.721 241.924 476.461 246.471 469.664 246.627Z"/><path fill="#F4A21F" transform="translate(-83 -54)" d="M698.438 391.434C699.131 391.665 698.681 391.548 699.817 391.639L699.722 389.396C708.599 399.852 713.306 406.463 716.859 420.101L715.185 420.1C714.785 419.875 714.071 419.512 713.863 419.144C711.355 414.692 698.336 395.059 698.438 391.434Z"/><path fill="#F4A21F" transform="translate(-83 -54)" d="M716.859 420.101C720.227 436.546 714.664 453.01 706.09 467.022C704.968 468.856 703.276 471.424 701.635 472.77C701.627 471.311 703.834 467.917 704.962 466.688C711.149 459.944 721.765 427.39 715.185 420.1L716.859 420.101Z"/><path fill="#F4A21F" transform="translate(-83 -54)" d="M698.438 391.434L698.683 390.299C694.116 383.644 678.856 372.944 671.779 368.058C669.537 366.509 664.737 364.101 663.232 362.349L663.924 362.142C673.264 366.681 692.883 381.403 699.722 389.396L699.817 391.639C698.681 391.548 699.131 391.665 698.438 391.434Z"/><defs><linearGradient id="gradient_10" gradientUnits="userSpaceOnUse" x1="315.61356" y1="617.3598" x2="335.04831" y2="566.2522"><stop offset="0" stop-color="#5A3108"/><stop offset="1" stop-color="#BC6D0B"/></linearGradient></defs><path fill="url(#gradient_10)" transform="translate(-83 -54)" d="M153.839 513.905L157.254 514.416L157.973 514.593C158.819 514.795 159.31 514.853 160.182 514.889C166.039 515.127 170.593 523.963 176.574 521.886C178.257 523.23 179.953 524.558 181.664 525.867L192.403 533.72C200.741 537.73 209.677 544.66 218.202 549.253C243.052 562.323 269.006 573.176 295.762 581.686C301.017 583.401 312.169 587.011 317.387 587.338C320.856 588.214 327.11 589.316 329.936 590.227C342.775 593.83 352.265 596.48 365.462 598.387C368.733 596.64 385.866 600.727 390.592 601.47C415.554 605.409 440.693 608.136 465.92 609.641C476.774 610.196 493.012 609.512 502.501 610.376L502.538 618.522L502.836 629.047C503.137 636.103 503.615 643.865 503.445 650.86C502.074 648.534 500.128 647.039 497.442 647.04C489.262 647.043 480.932 646.715 472.779 646.342C453.206 645.643 433.67 644.127 414.224 641.798C358.477 634.993 287.678 611.983 238.661 584.476C215.492 571.474 170.536 535.216 153.839 513.905Z"/><path fill="#E38918" transform="translate(-83 -54)" d="M365.462 598.387C368.733 596.64 385.866 600.727 390.592 601.47C415.554 605.409 440.693 608.136 465.92 609.641C476.774 610.196 493.012 609.512 502.501 610.376L502.538 618.522C494.14 617.538 481.651 616.939 473.201 616.635C436.917 612.996 400.921 606.899 365.462 598.387Z"/><path fill="#C56F12" transform="translate(-83 -54)" d="M473.201 616.635C481.651 616.939 494.14 617.538 502.538 618.522L502.836 629.047C502.447 629.674 502.203 630.039 501.766 630.662C496.799 629.453 472.307 619.847 469.367 617.169L473.201 616.635Z"/><path fill="#582E02" transform="translate(-83 -54)" d="M181.664 525.867L192.403 533.72C192.504 535.526 192.995 535.538 193.272 537.437C190.32 536.399 183.77 532.344 181.412 529.954C180.94 529.475 181.526 526.85 181.664 525.867Z"/><path fill="#582E02" transform="translate(-83 -54)" d="M475.517 637.205C479.146 637.526 497.375 637.185 498.765 637.98L498.033 639.38C493.936 641.258 477.776 640.119 475.517 637.205Z"/><path fill="#9B570A" transform="translate(-83 -54)" d="M464.755 628.75C468.992 628.557 494.173 628.62 496.144 629.855C485.327 630.29 475.502 629.659 464.755 628.75Z"/><path fill="#FEFEFE" transform="translate(-83 -54)" d="M502.501 610.376C504.68 610.584 506.858 610.518 508.613 611.669C509.973 613.475 509.635 614.67 509.525 616.975C509.473 620.927 509.332 625.184 509.374 629.109L516.136 628.99C516.268 633.048 516.341 637.107 516.356 641.167C516.398 644.691 516.477 648.062 516.267 651.584C515.09 650.333 515.134 650.221 513.453 649.651C511.522 649.93 511.083 650.61 509.643 651.94C509.437 653.184 509.251 654.431 509.084 655.681C506.753 677.047 508.274 699.934 506.527 721.071L505.553 721.054C505.572 712.498 504.938 702.778 504.621 694.121C504.123 679.704 503.731 665.283 503.445 650.86C503.615 643.865 503.137 636.103 502.836 629.047L502.538 618.522L502.501 610.376Z"/><path fill="#9B570A" transform="translate(-83 -54)" d="M509.374 629.109L516.136 628.99C516.268 633.048 516.341 637.107 516.356 641.167L515.886 641.122C513.151 640.936 511.712 641.517 509.079 642.228C509.316 638.035 509.298 633.343 509.374 629.109Z"/><path fill="#582E02" transform="translate(-83 -54)" d="M509.079 642.228C511.712 641.517 513.151 640.936 515.886 641.122L516.356 641.167C516.398 644.691 516.477 648.062 516.267 651.584C515.09 650.333 515.134 650.221 513.453 649.651C511.522 649.93 511.083 650.61 509.643 651.94C509.437 653.184 509.251 654.431 509.084 655.681C508.953 650.97 508.924 646.935 509.079 642.228Z"/><path fill="#6C3E0B" transform="translate(-83 -54)" d="M516.356 641.167C516.398 644.691 516.477 648.062 516.267 651.584C515.09 650.333 515.134 650.221 513.453 649.651C511.522 649.93 511.083 650.61 509.643 651.94C510.53 645.355 512.414 649.684 515.276 648.027C516.25 646.07 515.922 643.426 515.886 641.122L516.356 641.167Z"/><path fill="#FEFEFE" transform="translate(-83 -54)" d="M515.891 621.274C515.972 617.769 514.637 611.958 518.415 610.574C520.576 610.837 520.472 610.793 522.345 611.89C522.767 618.892 521.717 625.209 522.022 631.38C521.753 635.562 521.106 647.494 521.998 651.487C521.17 657.427 521.139 667.11 520.943 673.301C520.486 688.476 520.157 703.655 519.954 718.835L519.342 723.339L518.878 723.619L518.58 723.482C518.331 699.502 517.56 675.53 516.267 651.584C516.477 648.062 516.398 644.691 516.356 641.167C516.341 637.107 516.268 633.048 516.136 628.99L515.891 621.274Z"/><path fill="#65686D" transform="translate(-83 -54)" d="M518.387 80.2827C518.395 76.9191 518.233 55.9065 518.962 54.4356C520.074 58.9683 519.867 77.2973 519.607 82.4803L518.387 80.2827Z"/><path fill="#65686D" transform="translate(-83 -54)" d="M506.475 66.8737C506.434 72.654 506.471 78.4345 506.585 84.2138L505.47 84.0251C505.367 79.1856 505.534 73.5351 505.572 68.6417L506.475 66.8737Z"/><path fill="#65686D" transform="translate(-83 -54)" d="M505.553 721.054L506.527 721.071C506.612 726.619 506.343 732.489 506.466 737.832L505.563 734.202C505.763 731.048 505.502 724.543 505.553 721.054Z"/><path fill="#65686D" transform="translate(-83 -54)" d="M518.58 723.482L518.878 723.619L519.342 723.339L519.954 718.835C520.06 723.403 520.177 727.119 519.44 731.642L519.147 731.531C518.761 728.53 518.428 726.543 518.58 723.482Z"/><path fill="#222224" transform="translate(-83 -54)" d="M505.572 68.6417C505.371 64.9508 505.343 60.4148 506.061 56.7994C506.488 60.7564 506.533 62.8787 506.475 66.8737L505.572 68.6417Z"/><path fill="#222224" transform="translate(-83 -54)" d="M505.563 734.202L506.466 737.832C506.546 740.022 506.428 741.409 506.253 743.608L505.913 743.294C505.249 739.682 505.419 737.866 505.563 734.202Z"/></g></svg>