<?xml version="1.0" encoding="utf-8" ?><svg xmlns="http://www.w3.org/2000/svg" xmlns:xlink="http://www.w3.org/1999/xlink" width="1024" height="1024" viewBox="0 0 1024 1024"><path d="M177.739 0L844.889 0L845.498 0.154659C852.436 1.8722 859.736 2.74601 866.748 4.25081C943.201 20.6586 1004.56 84.2536 1019.95 160.606C1021.27 167.188 1022.09 180.553 1024 185.776L1024 838.433L1023.87 838.976C1022.49 844.976 1021.88 852.518 1020.79 858.727C1019.62 865.435 1018.28 871.633 1016.4 878.187C1002.43 925.419 971.934 966.05 930.484 992.657C911.323 1004.99 890.175 1013.93 867.972 1019.06C860.493 1020.84 850.714 1022.03 843.935 1024L179.751 1024C174.257 1022.3 162.026 1020.49 155.575 1018.97C133.841 1014.06 113.162 1005.29 94.5177 993.088C53.2062 966.672 22.6008 926.462 8.14241 879.607C3.86871 865.307 3.01673 854.717 0 840.774L0 184.168C1.58902 179.256 2.61135 166.946 3.9569 160.594C8.65396 138.724 16.8317 117.75 28.1778 98.4719C53.0798 55.9375 92.6915 23.9908 139.535 8.66265C154.034 4.04264 164.245 3.45222 177.739 0Z"/><path fill="#FED27C" d="M518.548 79.6093L519.202 80.0054C519.357 81.9236 519.621 87.157 519.944 88.5312L521.256 144.279C521.463 153.168 521.376 162.928 522.022 171.726C522.653 174.471 522.87 175.411 522.963 178.203C531.988 179.5 541.112 179.912 550.196 181.436C553.621 182.011 559.872 182.148 562.974 182.949C568.534 183.494 606.223 187.552 609.345 188.854C622.665 190.294 640.333 194.387 653.342 197.431C708.38 210.309 759.819 232.788 806.6 264.521C825.626 277.427 845.943 292.416 860.379 310.598C872.564 325.945 885.614 338.938 893.316 357.39C895.528 361.326 899.592 371.099 902.482 373.179L902.727 371.094L904.715 372.738C907.327 369.432 903.556 363.352 904.28 359.843L904.878 360.136C906.793 367.236 908.29 375.038 910.101 382.232C912.491 391.721 911.59 402.23 911.685 411.924C911.912 435.078 912.504 458.755 902.36 480.243C902.27 480.434 901.824 481.049 901.672 481.264L901.081 481.103L900.487 479.793C899.405 481.25 901.071 482.604 900.118 484.909L899.354 485.301L899.913 485.314L899.384 485.795L899.3 485.04C899.097 483.289 899.143 482.189 898.156 480.715C891.771 478.083 888.065 492.59 884.328 496.466C878.103 505.657 871.978 512.019 864.795 520.122C836.411 552.144 802.831 573.359 764.769 592.193C755.924 596.569 743.017 604.104 734.077 607.867C702.706 621.068 670.004 630.852 636.538 637.048C602.861 643.536 569.977 647.391 535.725 647.804C532.113 647.847 528.278 648.596 524.673 648.53C521.745 650.192 522.114 651.618 521.592 654.781C521.291 643.414 522.114 628.239 522.622 616.775C522.763 613.374 523.079 611.18 518.927 610.364C516.092 610.844 516.201 611.669 515.888 613.927C513.959 613.952 512.862 613.774 511.179 614.707C509.885 616.061 509.912 616.933 509.55 618.779C509.576 616.287 510.054 613.294 508.738 611.422C506.869 610.347 504.752 610.67 502.493 610.694L502.525 618.017C477.625 618.039 458.713 615.587 434.039 612.119C414.185 608.919 396.18 605.217 376.651 600.866C363.943 598.034 352.483 597.323 339.509 593.119C337.023 592.12 331.347 590.913 328.288 590.037C324.015 589.271 319.77 588.351 315.562 587.28C310.918 586.79 296.936 582.358 292.067 580.691C266.954 572.096 241.717 562.295 218.406 549.548C208.813 544.303 199.984 538.127 190.671 532.559C187.459 530.463 184.258 527.978 181.173 525.668C180.534 525.049 178.22 523.477 177.372 522.874C174.544 520.434 168.941 515.365 166.081 513.333C164.984 512.749 164.932 512.638 163.728 512.433C163.064 513.44 163.465 512.983 161.969 513.482C159.964 512.948 158.619 511.42 157.009 509.996L155.951 510.865L155.967 511.322L155.032 511.51C154.535 512.313 154.57 512.076 154.372 512.955L153.6 513.278C141.463 506.319 133.98 483.776 125.073 481.333L123.693 482.027C119.629 473.748 116.629 464.988 114.764 455.955C111.624 440.611 112.956 431.113 113.405 415.869C114.002 395.634 109.422 370.019 125.558 354.233C127.112 352.713 129.346 349.031 130.635 347.092C129.774 351.534 128.469 354.917 126.961 359.139C131.811 353.05 135.905 343.55 141.714 337.83C151.697 324.109 161.062 310.431 175.032 299.905C177.238 297.265 184.002 291.393 186.785 288.733C212.522 264.139 243.894 246.41 276.109 231.765C282.776 228.734 290.362 226.501 297.032 223.519C318.778 213.798 341.211 206.165 364.286 200.262C372.311 198.209 381.938 195.545 390.176 194.351C391.388 193.677 403.65 191.39 405.635 191.014C438.41 184.815 469.111 180.46 502.463 179.471C502.613 175.414 502.935 171.945 503.424 167.928C503.873 140.281 504.548 112.637 505.451 85.001L506.552 84.1015C506.58 112.052 507.663 146.748 509.189 174.665C509.86 176.008 509.863 175.894 511.194 176.643C514.899 176.712 515.48 174.83 516.058 171.792C516.942 165.075 516.452 151.013 516.639 143.505L518.548 79.6093Z"/><path fill="#F5A624" d="M522.022 171.726C522.653 174.471 522.87 175.411 522.963 178.203C531.988 179.5 541.112 179.912 550.196 181.436C553.621 182.011 559.872 182.148 562.974 182.949C568.534 183.494 606.223 187.552 609.345 188.854C622.665 190.294 640.333 194.387 653.342 197.431C708.38 210.309 759.819 232.788 806.6 264.521C825.626 277.427 845.943 292.416 860.379 310.598C872.564 325.945 885.614 338.938 893.316 357.39C895.528 361.326 899.592 371.099 902.482 373.179L902.727 371.094L904.715 372.738C907.327 369.432 903.556 363.352 904.28 359.843L904.878 360.136C906.793 367.236 908.29 375.038 910.101 382.232C912.491 391.721 911.59 402.23 911.685 411.924C911.912 435.078 912.504 458.755 902.36 480.243C902.27 480.434 901.824 481.049 901.672 481.264L901.081 481.103L900.487 479.793C899.405 481.25 901.071 482.604 900.118 484.909L899.354 485.301L899.913 485.314L899.384 485.795L899.3 485.04C899.097 483.289 899.143 482.189 898.156 480.715C891.771 478.083 888.065 492.59 884.328 496.466C878.103 505.657 871.978 512.019 864.795 520.122C836.411 552.144 802.831 573.359 764.769 592.193C755.924 596.569 743.017 604.104 734.077 607.867C702.706 621.068 670.004 630.852 636.538 637.048C602.861 643.536 569.977 647.391 535.725 647.804C532.113 647.847 528.278 648.596 524.673 648.53C521.745 650.192 522.114 651.618 521.592 654.781C521.291 643.414 522.114 628.239 522.622 616.775C522.763 613.374 523.079 611.18 518.927 610.364C516.092 610.844 516.201 611.669 515.888 613.927C513.959 613.952 512.862 613.774 511.179 614.707C509.885 616.061 509.912 616.933 509.55 618.779C509.576 616.287 510.054 613.294 508.738 611.422C506.869 610.347 504.752 610.67 502.493 610.694L502.525 618.017C477.625 618.039 458.713 615.587 434.039 612.119C414.185 608.919 396.18 605.217 376.651 600.866C363.943 598.034 352.483 597.323 339.509 593.119L342.667 592.841C345.047 592.617 345.164 592.64 347.19 591.476C354.785 591.549 363.506 592.376 371.336 592.564C395.196 592.705 419.889 595.153 443.737 594.194C524.363 590.953 608.917 577.335 684.28 548.242C726.673 531.876 784.212 499.386 802.362 456.249C810.838 436.575 810.993 414.308 802.79 394.518C785.062 351.923 732.416 325.031 692.174 307.402C677.346 300.905 658.698 297.533 643.365 291.26C641.831 281.673 641.585 277.852 637.653 268.697C635.741 264.246 636.683 248.81 638.315 243.881C642.277 241.468 697.771 249.438 701.47 247.297C696.357 245.997 691.26 244.639 686.178 243.224C683.322 237.675 640.942 215.929 632.979 209.337L633.454 208.446C629.653 208.399 629.531 207.929 627.172 210.763C623.232 212.133 619.115 211.604 615.015 212.042C611.726 211.677 609.747 211.493 606.442 211.495C602.739 211.253 590.871 209.018 589.272 209.384L589.382 210.727C588.409 211.354 584.681 211.038 583.177 211.022C568.894 209.648 554.761 207.99 540.409 207.409C534.658 207.177 527.974 204.035 522.489 205.597C522.233 199.101 522.068 192.603 521.995 186.103L522.022 171.726Z"/><defs><linearGradient id="gradient_0" gradientUnits="userSpaceOnUse" x1="720.25891" y1="612.5813" x2="701.85327" y2="569.47919"><stop offset="0" stop-color="#522C08"/><stop offset="1" stop-color="#A46010"/></linearGradient></defs><path fill="url(#gradient_0)" d="M876.742 498.699L875.915 500.085C878.384 500.047 880.687 496.99 884.328 496.466C878.103 505.657 871.978 512.019 864.795 520.122C836.411 552.144 802.831 573.359 764.769 592.193C755.924 596.569 743.017 604.104 734.077 607.867C702.706 621.068 670.004 630.852 636.538 637.048C602.861 643.536 569.977 647.391 535.725 647.804C532.113 647.847 528.278 648.596 524.673 648.53C521.745 650.192 522.114 651.618 521.592 654.781C521.291 643.414 522.114 628.239 522.622 616.775C523.117 614.77 522.998 613.151 522.994 611.1C532.904 610.247 543.807 610.612 553.955 610.122C574.165 609.164 594.341 607.586 614.454 605.392C621.005 604.244 628.091 603.654 634.691 602.655C695.263 593.482 755.539 577.869 809.372 547.859C821.086 541.328 832.514 533.273 843.515 525.429C846.219 523.292 848.967 521.211 851.758 519.189C853.101 517.331 861.852 509.86 864.152 507.78C868.241 504.084 869.669 502.526 873.33 498.106C874.517 498.27 875.602 498.355 876.742 498.699Z"/><defs><linearGradient id="gradient_1" gradientUnits="userSpaceOnUse" x1="569.74335" y1="627.63605" x2="556.59064" y2="597.3476"><stop offset="0" stop-color="#A25E10"/><stop offset="1" stop-color="#DB8314"/></linearGradient></defs><path fill="url(#gradient_1)" d="M522.994 611.1C532.904 610.247 543.807 610.612 553.955 610.122C574.165 609.164 594.341 607.586 614.454 605.392L616.794 605.729L616.841 606.186C592.951 619.745 563.397 627.939 538.696 640.454C535.159 642.246 527.674 645.289 524.895 647.697L524.673 648.53C521.745 650.192 522.114 651.618 521.592 654.781C521.291 643.414 522.114 628.239 522.622 616.775C523.117 614.77 522.998 613.151 522.994 611.1Z"/><path fill="#562F05" d="M843.515 525.429C846.219 523.292 848.967 521.211 851.758 519.189C851.333 522.151 847.127 525.917 844.229 525.901L843.515 525.429Z"/><defs><linearGradient id="gradient_2" gradientUnits="userSpaceOnUse" x1="769.89386" y1="242.66714" x2="747.67804" y2="279.50137"><stop offset="0" stop-color="#4F2D09"/><stop offset="1" stop-color="#9A6B17"/></linearGradient></defs><path fill="url(#gradient_2)" d="M522.022 171.726C522.653 174.471 522.87 175.411 522.963 178.203C531.988 179.5 541.112 179.912 550.196 181.436C553.621 182.011 559.872 182.148 562.974 182.949C568.534 183.494 606.223 187.552 609.345 188.854C622.665 190.294 640.333 194.387 653.342 197.431C708.38 210.309 759.819 232.788 806.6 264.521C825.626 277.427 845.943 292.416 860.379 310.598C872.564 325.945 885.614 338.938 893.316 357.39L892.443 357.58C885.621 353.188 879.179 337.632 872.077 337.151C870.934 336.38 870.32 335.466 869.398 334.394C865.432 330.303 861.383 326.293 857.254 322.367C851.939 317.678 844.496 311.639 838.779 307.41C836.835 306.363 834.697 304.919 832.822 303.685C824.801 298.411 816.536 293.537 808.42 288.423C776.654 270.989 736.514 256.152 701.47 247.297C696.357 245.997 691.26 244.639 686.178 243.224C683.322 237.675 640.942 215.929 632.979 209.337L633.454 208.446C629.653 208.399 629.531 207.929 627.172 210.763C623.232 212.133 619.115 211.604 615.015 212.042C611.726 211.677 609.747 211.493 606.442 211.495C602.739 211.253 590.871 209.018 589.272 209.384L589.382 210.727C588.409 211.354 584.681 211.038 583.177 211.022C568.894 209.648 554.761 207.99 540.409 207.409C534.658 207.177 527.974 204.035 522.489 205.597C522.233 199.101 522.068 192.603 521.995 186.103L522.022 171.726Z"/><path fill="#9B5A13" d="M522.022 171.726C522.653 174.471 522.87 175.411 522.963 178.203C531.988 179.5 541.112 179.912 550.196 181.436C553.621 182.011 559.872 182.148 562.974 182.949C568.534 183.494 606.223 187.552 609.345 188.854C610.755 190.306 612.612 191.564 614.513 192.274C618.45 193.743 623.472 194.011 627.629 194.976C631.25 195.816 658.965 203.427 659.759 204.4L659.675 205.805C662.298 207.401 664.018 207.556 666.769 208.711C652.773 207.526 637.153 203.781 623.199 201.961L623.877 202.111L622.278 202.261L622.748 201.931L621.949 202.156C624.346 203.367 625.461 203.68 627.899 204.369C630.092 204.987 641.953 206.123 642.625 207.444C638.168 208.045 636.969 206.447 633.454 208.446C629.653 208.399 629.531 207.929 627.172 210.763C623.232 212.133 619.115 211.604 615.015 212.042C611.726 211.677 609.747 211.493 606.442 211.495C602.739 211.253 590.871 209.018 589.272 209.384L589.382 210.727C588.409 211.354 584.681 211.038 583.177 211.022C568.894 209.648 554.761 207.99 540.409 207.409C534.658 207.177 527.974 204.035 522.489 205.597C522.233 199.101 522.068 192.603 521.995 186.103L522.022 171.726Z"/><path fill="#562F05" d="M522.022 171.726C522.653 174.471 522.87 175.411 522.963 178.203C531.988 179.5 541.112 179.912 550.196 181.436C553.621 182.011 559.872 182.148 562.974 182.949C560.876 184.499 558.702 186.067 556.631 187.64C551.989 186.762 549.136 186.171 544.411 185.878C539.355 185.565 526.042 186.825 521.995 186.103L522.022 171.726Z"/><path fill="#C87218" d="M536.157 202.177C538.426 202.141 541.909 202.178 543.597 203.879C541.189 203.907 537.644 204.134 536.157 202.177Z"/><path fill="#9B5A13" d="M808.42 288.423C810.453 288.456 821.282 293.384 823.474 294.332C826.732 295.741 837.975 304.436 838.779 307.41C836.835 306.363 834.697 304.919 832.822 303.685C824.801 298.411 816.536 293.537 808.42 288.423Z"/><path fill="#562F05" d="M857.254 322.367L858.069 322.082C859.501 321.57 861.067 320.098 862.337 320.882C864.877 322.449 864.455 323.517 864.006 326.242C865.387 329.416 871.466 330.733 869.398 334.394C865.432 330.303 861.383 326.293 857.254 322.367Z"/><path fill="#562F05" d="M872.077 337.151C879.179 337.632 885.621 353.188 892.443 357.58L893.316 357.39C895.528 361.326 899.592 371.099 902.482 373.179L902.727 371.094L904.715 372.738C907.327 369.432 903.556 363.352 904.28 359.843L904.878 360.136C906.793 367.236 908.29 375.038 910.101 382.232C912.491 391.721 911.59 402.23 911.685 411.924C911.912 435.078 912.504 458.755 902.36 480.243C902.27 480.434 901.824 481.049 901.672 481.264L901.081 481.103L900.487 479.793C899.405 481.25 901.071 482.604 900.118 484.909L899.354 485.301L899.913 485.314L899.384 485.795L899.3 485.04C899.097 483.289 899.143 482.189 898.156 480.715C891.771 478.083 888.065 492.59 884.328 496.466C880.687 496.99 878.384 500.047 875.915 500.085L876.742 498.699C875.602 498.355 874.517 498.27 873.33 498.106C876.181 494.571 879.668 490.907 882.69 487.318C885.491 482.568 889.084 477.895 891.936 473.125C908.484 445.458 912.696 413.613 900.957 383.253C893.882 364.954 884.474 351.979 872.077 337.151Z"/><path fill="#9B5A13" d="M887.109 482.799C884.821 490.838 882.51 492.592 876.742 498.699C875.602 498.355 874.517 498.27 873.33 498.106C876.181 494.571 879.668 490.907 882.69 487.318C884.273 486.872 885.971 484.238 887.109 482.799Z"/><path fill="#E58F1E" d="M339.509 593.119L342.667 592.841C389.417 601.851 434.76 609.053 482.489 610.47C488.351 610.644 497.16 609.92 502.493 610.694L502.525 618.017C477.625 618.039 458.713 615.587 434.039 612.119C414.185 608.919 396.18 605.217 376.651 600.866C363.943 598.034 352.483 597.323 339.509 593.119Z"/><path fill="#F5A624" d="M503.424 167.928C503.428 171.008 503.564 179.737 503.045 182.368C502.954 188.657 502.459 196.316 502.522 202.33L502.405 211.25C502.42 214.873 502.325 218.494 502.119 222.111C486.035 222.543 462.14 224.123 445.945 226.04C442.897 228.781 438.942 230.613 435.652 233.13C428.424 238.659 420.221 247.708 415.56 255.464C353.397 270.847 264.106 304.093 228.773 360.612C183.58 432.902 258.31 497.029 322.06 517.251C412.429 549.197 521.792 555.377 613.542 531.821C621.577 529.837 629.472 527.321 637.173 524.288C642.071 522.381 649.357 519.086 654.019 517.69C645.326 524.459 628.014 534.072 618.028 539.096C548.567 573.958 469.972 586.89 392.922 589.667C374.072 590.347 354.896 588.881 336.053 588.175C332.099 588.027 317.995 585.871 315.562 587.28C310.918 586.79 296.936 582.358 292.067 580.691C266.954 572.096 241.717 562.295 218.406 549.548C208.813 544.303 199.984 538.127 190.671 532.559C187.459 530.463 184.258 527.978 181.173 525.668C180.534 525.049 178.22 523.477 177.372 522.874C174.544 520.434 168.941 515.365 166.081 513.333C164.984 512.749 164.932 512.638 163.728 512.433C163.064 513.44 163.465 512.983 161.969 513.482C159.964 512.948 158.619 511.42 157.009 509.996L155.951 510.865L155.967 511.322L155.032 511.51C154.535 512.313 154.57 512.076 154.372 512.955L153.6 513.278C141.463 506.319 133.98 483.776 125.073 481.333L123.693 482.027C119.629 473.748 116.629 464.988 114.764 455.955C111.624 440.611 112.956 431.113 113.405 415.869C114.002 395.634 109.422 370.019 125.558 354.233C127.112 352.713 129.346 349.031 130.635 347.092C129.774 351.534 128.469 354.917 126.961 359.139C131.811 353.05 135.905 343.55 141.714 337.83C151.697 324.109 161.062 310.431 175.032 299.905C177.238 297.265 184.002 291.393 186.785 288.733C212.522 264.139 243.894 246.41 276.109 231.765C282.776 228.734 290.362 226.501 297.032 223.519C318.778 213.798 341.211 206.165 364.286 200.262C372.311 198.209 381.938 195.545 390.176 194.351C391.388 193.677 403.65 191.39 405.635 191.014C438.41 184.815 469.111 180.46 502.463 179.471C502.613 175.414 502.935 171.945 503.424 167.928Z"/><defs><linearGradient id="gradient_3" gradientUnits="userSpaceOnUse" x1="309.25085" y1="230.98355" x2="335.10217" y2="285.16055"><stop offset="0" stop-color="#6E450E"/><stop offset="1" stop-color="#D29723"/></linearGradient></defs><path fill="url(#gradient_3)" d="M503.424 167.928C503.428 171.008 503.564 179.737 503.045 182.368C502.954 188.657 502.459 196.316 502.522 202.33L502.405 211.25C502.42 214.873 502.325 218.494 502.119 222.111C486.035 222.543 462.14 224.123 445.945 226.04C426.561 226.191 402.501 231.66 382.867 234.148C376.9 236.097 369.535 236.622 363.315 237.888C291.046 252.59 222.028 275.508 165.201 323.999L164.378 322.852C166.2 318.272 175.036 313.029 175.685 311.003C168.914 308.588 159.579 321.35 155.078 324.907C151.212 327.963 146.496 337.524 141.714 337.83C151.697 324.109 161.062 310.431 175.032 299.905C177.238 297.265 184.002 291.393 186.785 288.733C212.522 264.139 243.894 246.41 276.109 231.765C282.776 228.734 290.362 226.501 297.032 223.519C318.778 213.798 341.211 206.165 364.286 200.262C372.311 198.209 381.938 195.545 390.176 194.351C391.388 193.677 403.65 191.39 405.635 191.014C438.41 184.815 469.111 180.46 502.463 179.471C502.613 175.414 502.935 171.945 503.424 167.928Z"/><defs><linearGradient id="gradient_4" gradientUnits="userSpaceOnUse" x1="278.48285" y1="231.10959" x2="284.3205" y2="243.42619"><stop offset="0" stop-color="#4C2906"/><stop offset="1" stop-color="#68420D"/></linearGradient></defs><path fill="url(#gradient_4)" d="M175.032 299.905C177.238 297.265 184.002 291.393 186.785 288.733C212.522 264.139 243.894 246.41 276.109 231.765C282.776 228.734 290.362 226.501 297.032 223.519C318.778 213.798 341.211 206.165 364.286 200.262C372.311 198.209 381.938 195.545 390.176 194.351C387.798 196.628 384.091 195.758 381.529 197.149C375.347 200.507 369.252 203.516 362.911 206.543L256.954 256.846C236.095 266.729 214.781 277.098 193.694 286.392C185.959 289.8 178.34 299.353 175.032 299.905Z"/><defs><linearGradient id="gradient_5" gradientUnits="userSpaceOnUse" x1="473.33563" y1="212.64722" x2="482.04282" y2="230.17099"><stop offset="0" stop-color="#D7A125"/><stop offset="1" stop-color="#FDC12D"/></linearGradient></defs><path fill="url(#gradient_5)" d="M445.391 212.135C452.174 211.145 496.488 204.023 501.003 207.769C501.388 209.383 501.492 209.784 502.405 211.25C502.42 214.873 502.325 218.494 502.119 222.111C486.035 222.543 462.14 224.123 445.945 226.04C426.561 226.191 402.501 231.66 382.867 234.148C386.47 231.168 441.399 225.08 449.018 225.249C456.223 220.205 473.709 213.757 482.628 208.254C476.057 206.476 433.332 216.062 423.186 215.309C424.193 215.037 425.156 214.81 426.172 214.574C430.766 214.462 440.448 212.832 445.391 212.135Z"/><path fill="#C87218" d="M501.745 198.493C501.838 194.746 501.637 188.922 502.597 185.441L501.33 183.667L503.045 182.368C502.954 188.657 502.459 196.316 502.522 202.33C499.6 203.212 487.226 205.568 485.156 204.88C487.593 201.709 497.742 204.908 501.805 200.792C499.424 199.854 495.712 202.314 491.846 201.021L491.653 200.344C494.703 197.751 497.652 198.4 501.745 198.493Z"/><path fill="#C87218" d="M426.172 214.574L426.175 214C424.094 214.372 418.516 215.556 416.878 214.765C420.096 212.119 434.449 211.415 438.788 211.452C440.362 210.028 440.845 209.308 443 209.953L442.349 211.22L442.764 211.941L444.483 211.524L445.391 212.135C440.448 212.832 430.766 214.462 426.172 214.574Z"/><path fill="#C87218" d="M478.937 199.666C480.854 199.516 483.191 199.045 484.772 199.939L485.124 201.349C482.426 201.566 479.803 202.496 478.937 199.666Z"/><path fill="#9B5A13" d="M393.56 202.163L393.847 202.735C392.207 204.326 388.904 204.869 386.712 205.268C386.558 205.093 386.659 205.251 386.449 204.514C387.906 203.548 391.702 202.678 393.56 202.163Z"/><path fill="#562F05" d="M141.714 337.83C146.496 337.524 151.212 327.963 155.078 324.907C159.579 321.35 168.914 308.588 175.685 311.003C175.036 313.029 166.2 318.272 164.378 322.852L165.201 323.999C148.589 340.6 136.071 354.19 126.372 375.566C107.219 417.778 118.144 461.931 148.838 495.229C154.255 501.105 160.814 507.37 166.081 513.333C164.984 512.749 164.932 512.638 163.728 512.433C163.064 513.44 163.465 512.983 161.969 513.482C159.964 512.948 158.619 511.42 157.009 509.996L155.951 510.865L155.967 511.322L155.032 511.51C154.535 512.313 154.57 512.076 154.372 512.955L153.6 513.278C141.463 506.319 133.98 483.776 125.073 481.333L123.693 482.027C119.629 473.748 116.629 464.988 114.764 455.955C111.624 440.611 112.956 431.113 113.405 415.869C114.002 395.634 109.422 370.019 125.558 354.233C127.112 352.713 129.346 349.031 130.635 347.092C129.774 351.534 128.469 354.917 126.961 359.139C131.811 353.05 135.905 343.55 141.714 337.83Z"/><path fill="#C87218" d="M155.951 510.865C154.366 509.127 151.518 506.89 153.414 504.723C155.672 504.634 158.632 505.804 159.237 508.152L157.408 508.735L157.009 509.996L155.951 510.865Z"/><path d="M509.963 264.071L514.741 264.071L517.29 264.087C527.125 264.993 533.322 265.026 543.416 267.041C577.397 274.06 607.978 292.435 630.128 319.144C640.983 332.22 645.474 341.187 652.455 356.353L655.798 366.029C659.352 380.119 661.637 388.152 662.457 402.613C662.495 407.373 662.508 412.133 662.497 416.894L662.54 420.817C662.268 424.106 662.11 426.022 661.434 429.266C661.379 437.527 656.77 446.078 655.8 452.219C657.178 455.058 650.755 465.069 650.289 468.798L651.184 469.973C603.464 496.661 535.838 506.105 481.9 501.635C473.548 500.975 465.236 499.874 457 498.334C453.615 497.674 440.452 494.732 438.042 494.651C407.788 486.515 356.641 467.273 340.171 439.479C344.591 441.183 348.005 448.635 352.22 451.578C357.514 455.273 363.359 453.899 368.85 456.999C369.187 457.135 369.523 457.271 369.86 457.408C367.938 452.819 364.976 447.123 365.794 442.298C365.471 438.131 364.205 433.937 363.77 429.381C363.145 426.162 362.561 420.623 362.638 417.385C360.465 404.316 364.316 381.959 367.859 368.974L370.465 361.177C372.502 356.33 374.503 351.468 376.468 346.592C398.734 304.157 433.407 277.801 480.041 267.214C489.735 265.013 497.953 265.093 507.578 264.072L509.963 264.071Z"/><path fill="#9B5A13" d="M362.638 417.385L362.867 417.768C365.507 422.259 367.05 427.56 370.876 431.258C377.575 437.733 411.666 447.469 421.928 450.192C462.788 461.293 505.357 464.688 547.459 460.202C560.09 458.746 650.124 443.341 653.544 434.272L653.545 433.912C655.257 430.611 657.211 429.619 660.817 430.262L661.434 429.266C661.379 437.527 656.77 446.078 655.8 452.219C657.178 455.058 650.755 465.069 650.289 468.798L651.184 469.973C603.464 496.661 535.838 506.105 481.9 501.635C473.548 500.975 465.236 499.874 457 498.334C453.615 497.674 440.452 494.732 438.042 494.651C407.788 486.515 356.641 467.273 340.171 439.479C344.591 441.183 348.005 448.635 352.22 451.578C357.514 455.273 363.359 453.899 368.85 456.999C369.187 457.135 369.523 457.271 369.86 457.408C367.938 452.819 364.976 447.123 365.794 442.298C365.471 438.131 364.205 433.937 363.77 429.381C363.145 426.162 362.561 420.623 362.638 417.385Z"/><path fill="#E58F1E" d="M340.171 439.479C344.591 441.183 348.005 448.635 352.22 451.578C357.514 455.273 363.359 453.899 368.85 456.999C369.187 457.135 369.523 457.271 369.86 457.408C367.938 452.819 364.976 447.123 365.794 442.298C368.536 453.493 369.642 453.907 379.704 460.254C384.278 463.139 393.659 468.135 399.189 468.338L400.063 468.545C402.887 469.236 408.792 471.636 411.841 472.683C418.208 474.829 424.666 476.697 431.196 478.281C478.305 489.776 530.018 488.781 577.561 481.632C582.13 480.945 583.396 477.949 587.748 478.521C595.57 479.208 594.855 477.687 599.779 476.012L600.029 475.497C601.556 474.917 605.294 473.826 606.774 474.45L604.318 475.665L604.775 475.995C607.886 475.516 614.105 471.656 615.912 472.639L615.052 473.836C617.083 474.264 619.147 471.696 622.327 472.079C621.52 473.115 620.934 473.145 619.612 473.732L620.19 474.039C632.759 472.035 638.732 468.958 647.958 460.267C650.704 457.681 653.464 455.253 655.8 452.219C657.178 455.058 650.755 465.069 650.289 468.798L651.184 469.973C603.464 496.661 535.838 506.105 481.9 501.635C473.548 500.975 465.236 499.874 457 498.334C453.615 497.674 440.452 494.732 438.042 494.651C407.788 486.515 356.641 467.273 340.171 439.479Z"/><defs><linearGradient id="gradient_6" gradientUnits="userSpaceOnUse" x1="511.2254" y1="420.90393" x2="511.43378" y2="472.54666"><stop offset="0" stop-color="#2F1A05"/><stop offset="1" stop-color="#6B3E0C"/></linearGradient></defs><path fill="url(#gradient_6)" d="M362.638 417.385L362.867 417.768C365.507 422.259 367.05 427.56 370.876 431.258C377.575 437.733 411.666 447.469 421.928 450.192C462.788 461.293 505.357 464.688 547.459 460.202C560.09 458.746 650.124 443.341 653.544 434.272L653.545 433.912C655.257 430.611 657.211 429.619 660.817 430.262C652.414 443.417 639.306 444.551 626.511 452.192L628.151 451.83C623.774 454.074 613.309 457.164 608.163 459.666C606.684 460.385 601.195 458.807 599.552 459.702L599.387 461.459C596.84 463.06 593.503 461.85 590.554 464.74C590.381 464.849 590.207 464.958 590.034 465.067C586.433 465.028 576.223 464.19 573.597 465.928C574.074 467.035 573.782 466.507 574.478 467.51C570.782 471.501 524.236 474.98 520.92 473.321L520.516 472.198C514.49 472.249 506.345 474.951 500.675 472.12L501.397 471.13C499.606 470.52 498.967 470.492 497.858 468.961C495.566 468.242 488.586 467.675 486.633 468.744C485.175 468.869 483.128 469.247 481.738 468.862C472.362 466.447 462.726 465.498 453.1 464.107C447.07 463.236 439.822 460.306 434.081 462.041C433.45 462.232 427.507 457.819 423.863 457.73C418.988 457.611 414.241 458.142 409.63 458.018C405.64 455.47 401.633 453.115 397.672 450.537L397.982 449.706C397.599 447.981 396.694 449.996 394.903 448.499C395.832 447.813 395.56 448.233 395.874 447.355C391.633 444.063 387.008 446.654 383.691 444.446C384.786 443.515 384.767 443.904 384.974 442.918C374.483 439.193 372.147 436.652 363.77 429.381C363.145 426.162 362.561 420.623 362.638 417.385Z"/><path fill="#562F05" d="M497.858 468.961C500.426 469.035 509.834 468.375 510.569 468.627C508.83 470.023 503.662 470.924 501.397 471.13C499.606 470.52 498.967 470.492 497.858 468.961Z"/><defs><linearGradient id="gradient_7" gradientUnits="userSpaceOnUse" x1="505.26328" y1="464.14951" x2="504.78024" y2="486.0062"><stop offset="0" stop-color="#A76014"/><stop offset="1" stop-color="#BF741A"/></linearGradient></defs><path fill="url(#gradient_7)" d="M397.259 462.962C398.878 461.143 401.056 460.862 403.428 460.715C410.34 460.287 414.978 465.742 420.589 468.416C423.47 469.788 428.595 470.056 431.949 470.176L434.767 472.643C442.713 474.01 451.263 475.197 459.282 475.864C465.099 476.347 469.903 475.841 475.926 476.732C477.15 477.905 477.907 478.346 478.145 479.997C480.021 480.043 482.195 480.146 484.043 479.92C492.797 478.849 501.197 479.259 509.973 479.739L509.348 479.88C520.898 481.178 522.826 480.221 533.64 480.027C543.132 479.857 547.728 481.786 558.672 479.873C573.758 477.237 587.781 471.932 602.531 469.503C607.94 468.612 609.832 466.037 612.188 466.236L612.874 467.133C612.367 468.951 609.822 470.862 608.267 472.154C606.14 472.397 599.812 472.723 598.887 474.543L600.029 475.497L599.779 476.012C594.855 477.687 595.57 479.208 587.748 478.521C583.396 477.949 582.13 480.945 577.561 481.632C530.018 488.781 478.305 489.776 431.196 478.281C424.666 476.697 418.208 474.829 411.841 472.683C408.792 471.636 402.887 469.236 400.063 468.545L399.189 468.338C400.794 467.366 400.076 467.992 401.098 466.043C399.612 465.462 397.518 464.751 396.661 463.505L397.259 462.962Z"/><path fill="#C87218" d="M401.098 466.043C399.612 465.462 397.518 464.751 396.661 463.505L397.259 462.962C404.493 464.796 411.25 466.794 417.679 470.641C411.292 469.336 406.775 467.403 401.098 466.043Z"/><path fill="#9B5A13" d="M475.926 476.732C477.15 477.905 477.907 478.346 478.145 479.997C476.291 479.843 472.664 479.733 471.13 479.1C472.583 478.118 473.222 478.121 474.93 477.802L475.533 477.693L475.926 476.732Z"/><path fill="#562F05" d="M486.633 468.744C488.586 467.675 495.566 468.242 497.858 468.961C498.967 470.492 499.606 470.52 501.397 471.13L500.675 472.12C495.731 472.945 489.337 473.238 484.452 471.925L484.158 471.238C485.746 469.588 485.978 470.906 487.877 469.347L486.633 468.744Z"/><path fill="#C87218" d="M627.179 464.41C628.47 464.412 628.448 464.367 629.656 464.774C629.057 465.586 623.248 467.929 621.848 468.557C620.906 468.683 620.991 468.653 620.04 468.599C620.312 467.71 625.79 465.15 627.179 464.41Z"/><path fill="#311703" d="M653.545 433.912C653.044 430.216 658.944 419.268 662.497 416.894L662.54 420.817C662.268 424.106 662.11 426.022 661.434 429.266L660.817 430.262C657.211 429.619 655.257 430.611 653.545 433.912Z"/><path fill="#FEFEFE" d="M498.115 356.551C495.474 355.385 494.133 354.884 492.957 352.283C493.559 338.166 546.117 345.161 527.986 355.946L528.545 356.561L530.535 356.097C532.845 358.043 531.945 362.573 530.404 364.739L531.233 365.553C531.514 368.239 532.166 373.171 530.823 375.397L529.894 375.544C516.461 377.77 509.343 381.385 494.764 375.142C494.093 374.725 493.804 374.411 493.208 373.888C492.231 370.678 492.709 368.89 493.321 365.552L493.571 364.76C492.205 360.989 492.477 359.595 492.789 355.672L498.496 357.699L498.115 356.551Z"/><path fill="#FEFEFE" d="M498.115 356.551C495.474 355.385 494.133 354.884 492.957 352.283C493.559 338.166 546.117 345.161 527.986 355.946C518.01 359.127 508.284 359.025 498.115 356.551Z"/><path fill="#FEFEFE" d="M528.545 356.561L530.535 356.097C532.845 358.043 531.945 362.573 530.404 364.739C516.994 369.847 506.958 369.241 493.571 364.76C492.205 360.989 492.477 359.595 492.789 355.672L498.496 357.699L498.115 356.551C508.284 359.025 518.01 359.127 527.986 355.946L528.545 356.561Z"/><path d="M527.986 355.946L528.545 356.561C518.773 360.766 508.6 360.283 498.496 357.699L498.115 356.551C508.284 359.025 518.01 359.127 527.986 355.946Z"/><path fill="#2B2B2E" d="M493.571 364.76C506.958 369.241 516.994 369.847 530.404 364.739L531.233 365.553C517.344 371.069 507.016 370.766 493.321 365.552L493.571 364.76Z"/><path fill="#FEFEFE" d="M493.606 376.175C508.378 380.722 516.888 381.587 531.504 376.041C531.526 379.154 531.672 382.032 531.177 385.105C517.935 389.536 506.186 390.315 493.062 384.504C492.652 382.237 492.046 377.929 493.606 376.175Z"/><path fill="#FEFEFE" d="M493.127 385.911C504.187 391.282 520.442 391.207 531.565 386.009C531.653 391.364 530.584 394.603 524.991 396.831C517.015 399.78 507.281 399.617 499.292 396.835C494.924 395.314 490.416 390.592 493.127 385.911Z"/><path fill="#FEFEFE" d="M502.808 419.973C504.514 419.671 504.461 419.851 505.338 421.091C505.002 424.597 495.269 428.475 492.108 430.027C495.491 431.991 503.943 435.127 505.31 437.769C505.384 439.817 505.63 438.897 504.558 440.633L503.775 440.632C498.318 438.206 492.895 435.705 487.508 433.127L487.51 427.461L502.808 419.973Z"/><path fill="#FEFEFE" d="M519.265 419.009C524.883 421.837 530.653 424.894 536.472 427.233L536.608 433.31C531.671 435.324 527.446 437.438 522.689 439.8C520.915 440.459 521.267 440.639 519.725 440.288C517.683 434.816 527.798 432.216 532.108 430.281C527.033 427.618 518.646 425.454 519.265 419.009Z"/><path fill="#FEFEFE" d="M518.548 79.6093L519.202 80.0054C519.357 81.9236 519.621 87.157 519.944 88.5312L521.256 144.279C521.463 153.168 521.376 162.928 522.022 171.726L521.995 186.103C522.068 192.603 522.233 199.101 522.489 205.597C522.596 210.932 522.932 216.801 522.957 222.026L523.038 240.467C540.1 237.861 555.379 238.544 572.427 238.361C598.534 238.08 621.947 238.907 647.95 241.378C640.736 243.32 614.777 242.151 605.362 242.598C577.909 243.764 550.598 247.195 523.709 252.855L523.68 264.079C521.755 264.058 519.156 263.95 517.29 264.087L514.741 264.071L509.963 264.071L507.578 264.072C497.953 265.093 489.735 265.013 480.041 267.214C433.407 277.801 398.734 304.157 376.468 346.592C374.503 351.468 372.502 356.33 370.465 361.177L367.859 368.974C364.316 381.959 360.465 404.316 362.638 417.385C362.561 420.623 363.145 426.162 363.77 429.381C364.205 433.937 365.471 438.131 365.794 442.298C364.976 447.123 367.938 452.819 369.86 457.408C369.523 457.271 369.187 457.135 368.85 456.999C363.359 453.899 357.514 455.273 352.22 451.578C348.005 448.635 344.591 441.183 340.171 439.479C356.641 467.273 407.788 486.515 438.042 494.651C431.411 495.976 397.499 486.834 389.763 484.261C357.992 473.695 321.198 452.903 305.687 422.146C297.212 405.262 295.878 385.68 301.986 367.802C319.948 313.724 400.289 278.265 450.57 263.042C458.488 260.715 466.474 258.63 474.518 256.788C482.415 254.973 493.849 253.007 500.803 249.331C501.188 246.435 501.345 245.162 501.278 242.154L501.692 240.58C502.21 238.601 502.095 225.105 502.119 222.111C502.325 218.494 502.42 214.873 502.405 211.25L502.522 202.33C502.459 196.316 502.954 188.657 503.045 182.368C503.564 179.737 503.428 171.008 503.424 167.928C503.873 140.281 504.548 112.637 505.451 85.001L506.552 84.1015C506.58 112.052 507.663 146.748 509.189 174.665C509.86 176.008 509.863 175.894 511.194 176.643C514.899 176.712 515.48 174.83 516.058 171.792C516.942 165.075 516.452 151.013 516.639 143.505L518.548 79.6093Z"/><path fill="#C87218" d="M360.538 369.015C363.085 368.847 365.318 368.922 367.859 368.974C364.316 381.959 360.465 404.316 362.638 417.385C362.561 420.623 363.145 426.162 363.77 429.381C364.205 433.937 365.471 438.131 365.794 442.298C364.976 447.123 367.938 452.819 369.86 457.408C369.523 457.271 369.187 457.135 368.85 456.999C363.359 453.899 357.514 455.273 352.22 451.578C348.005 448.635 344.591 441.183 340.171 439.479C339.251 438.556 338.217 436.704 337.572 435.536C331.261 424.095 330.312 412.12 333.992 399.645C336.061 398.413 343.048 385.682 345.902 382.329C350.5 376.928 354.26 372.785 360.538 369.015Z"/><path fill="#FED27C" d="M501.442 258.012C501.127 260.293 500.438 262.043 501.982 263.793C504.118 264.201 505.383 264.099 507.578 264.072C497.953 265.093 489.735 265.013 480.041 267.214C433.407 277.801 398.734 304.157 376.468 346.592C374.9 338.414 379.56 328.493 383.816 321.745C404.897 288.31 464.78 266.591 501.442 258.012Z"/><defs><linearGradient id="gradient_8" gradientUnits="userSpaceOnUse" x1="510.1304" y1="193.97533" x2="514.85724" y2="218.95943"><stop offset="0" stop-color="#AE580A"/><stop offset="1" stop-color="#FCA831"/></linearGradient></defs><path fill="url(#gradient_8)" d="M509.404 192.17C512.44 193.423 512.949 193.237 515.873 191.772C515.553 201.638 515.422 211.578 515.019 221.417C513.425 221.487 512.076 221.786 510.813 220.952C508.879 217.776 510.491 211.12 509.566 206.359L509.404 192.17Z"/><path fill="#E58F1E" d="M333.992 399.645C337.617 384.109 357.133 368.309 370.465 361.177L367.859 368.974C365.318 368.922 363.085 368.847 360.538 369.015C354.26 372.785 350.5 376.928 345.902 382.329C343.048 385.682 336.061 398.413 333.992 399.645Z"/><path fill="#FED27C" d="M509.566 206.359C510.491 211.12 508.879 217.776 510.813 220.952C512.076 221.786 513.425 221.487 515.019 221.417C514.798 227.462 514.495 233.561 514.612 239.604C513.17 240.04 511.504 239.969 509.972 240.01C510.175 228.936 509.377 217.703 509.566 206.359Z"/><path fill="#562F05" d="M509.189 174.665C509.86 176.008 509.863 175.894 511.194 176.643C514.899 176.712 515.48 174.83 516.058 171.792C516.016 176.777 516.001 181.762 516.015 186.747C513.684 187.337 511.956 189.123 509.754 187.797L509.18 185.214C509.002 181.274 509.01 178.607 509.189 174.665Z"/><path fill="#FEE8BE" d="M509.972 240.01C511.504 239.969 513.17 240.04 514.612 239.604C515.221 242.073 515.642 245.721 514.493 248.1C512.657 249.493 512.672 249.059 509.967 249.354L509.972 240.01Z"/><path fill="#FEE8BE" d="M510.015 256.385L515.039 254.505C514.886 257.378 514.572 261.288 514.741 264.071L509.963 264.071L510.015 256.385Z"/><path fill="#9B5A13" d="M509.18 185.214L509.754 187.797C511.956 189.123 513.684 187.337 516.015 186.747L515.873 191.772C512.949 193.237 512.44 193.423 509.404 192.17C509.165 190.451 509.21 187.068 509.18 185.214Z"/><defs><linearGradient id="gradient_9" gradientUnits="userSpaceOnUse" x1="587.77313" y1="208.71593" x2="582.2962" y2="233.75261"><stop offset="0" stop-color="#C2951E"/><stop offset="1" stop-color="#FFAF27"/></linearGradient></defs><path fill="url(#gradient_9)" d="M522.489 205.597C527.974 204.035 534.658 207.177 540.409 207.409C554.761 207.99 568.894 209.648 583.177 211.022C584.681 211.038 588.409 211.354 589.382 210.727L589.272 209.384C590.871 209.018 602.739 211.253 606.442 211.495C609.747 211.493 611.726 211.677 615.015 212.042C619.115 211.604 623.232 212.133 627.172 210.763C629.531 207.929 629.653 208.399 633.454 208.446L632.979 209.337C640.942 215.929 683.322 237.675 686.178 243.224C679.764 241.958 671.754 240.474 665.614 238.563C661.581 238.589 650.991 236.241 646.64 235.42C635.876 233.278 625.051 231.457 614.178 229.959C593.885 227.165 573.501 225.073 553.063 223.686C543.006 222.983 532.965 222.747 522.957 222.026C522.932 216.801 522.596 210.932 522.489 205.597Z"/><defs><linearGradient id="gradient_10" gradientUnits="userSpaceOnUse" x1="648.71057" y1="218.58284" x2="637.47955" y2="236.72537"><stop offset="0" stop-color="#996A16"/><stop offset="1" stop-color="#BC881D"/></linearGradient></defs><path fill="url(#gradient_10)" d="M615.015 212.042C619.115 211.604 623.232 212.133 627.172 210.763C629.531 207.929 629.653 208.399 633.454 208.446L632.979 209.337C640.942 215.929 683.322 237.675 686.178 243.224C679.764 241.958 671.754 240.474 665.614 238.563C661.326 236.01 656.776 236.393 652.504 234.956C644.453 232.248 636.884 229.598 628.711 227.186C610.492 221.809 592.423 219.229 573.733 216.473C572.65 216.314 573.065 216.663 572.143 216.044C575.297 215.748 578.899 216.719 582.096 217.262C590.14 218.629 598.374 219.077 606.243 221.216C608.829 221.918 611.311 222.468 613.984 222.795L614.2 222.279C614.08 222.124 613.961 221.969 613.841 221.814C606.998 216.794 601.553 210.659 592.513 210.459C589.646 210.396 590.24 210.554 588.338 212.115C586.648 212.432 584.873 211.599 583.177 211.022C584.681 211.038 588.409 211.354 589.382 210.727L589.272 209.384C590.871 209.018 602.739 211.253 606.442 211.495C609.747 211.493 611.726 211.677 615.015 212.042Z"/><path fill="#C87218" d="M606.442 211.495C609.747 211.493 611.726 211.677 615.015 212.042L617.15 213.693L616.991 214.178C613.915 214.575 609.089 213.453 606.442 211.495Z"/><path fill="#C87218" d="M655.798 366.029C658.14 365.501 659.161 366.052 661.179 367.518C675.031 377.574 689.87 388.852 693.274 406.675C695.532 418.499 693.7 429.956 687.354 440.022C683.835 445.768 673.821 453.712 672.236 456.269C665.265 461.242 658.706 465.801 651.184 469.973L650.289 468.798C650.755 465.069 657.178 455.058 655.8 452.219C656.77 446.078 661.379 437.527 661.434 429.266C662.11 426.022 662.268 424.106 662.54 420.817L662.497 416.894C662.508 412.133 662.495 407.373 662.457 402.613C661.637 388.152 659.352 380.119 655.798 366.029Z"/><path fill="#9B5A13" d="M662.457 402.613C665.76 403.751 667.549 404.612 669.932 407.267C677.419 415.604 669.295 418.052 662.54 420.817L662.497 416.894C662.508 412.133 662.495 407.373 662.457 402.613Z"/><path fill="#F5A624" d="M652.455 356.353C658.269 360.066 665.338 362.327 671.151 366.306C689.725 379.018 710.7 395.232 716.334 418.13C720.601 436.889 714.46 453.719 704.431 469.255C703.354 470.923 702.489 472.028 701.214 473.491C701.145 472.095 704.08 468.447 705.048 466.936C707.282 463.409 709.276 459.737 711.016 455.943C714.771 447.783 719.923 428.407 715.758 420.06L714.517 420.405C712.707 417.047 697.758 392.629 697.709 391.457L698.204 391.249L699.229 391.94L699.64 391.321C696.24 383.889 662.358 359.969 654.365 358.6C654.391 359.301 654.589 359.695 654.806 360.365C654.858 360.528 654.897 360.695 654.946 360.86C657.052 368.06 693.725 379.922 695.116 413.987C695.456 422.158 693.631 430.272 689.827 437.511C686.705 443.334 678.046 453.27 672.602 456.475L672.236 456.269C673.821 453.712 683.835 445.768 687.354 440.022C693.7 429.956 695.532 418.499 693.274 406.675C689.87 388.852 675.031 377.574 661.179 367.518C659.161 366.052 658.14 365.501 655.798 366.029L652.455 356.353Z"/><path fill="#FEE8BE" d="M501.278 242.154C491.705 242.379 479.184 247.006 470.077 246.456C474.226 244.414 494.121 242.694 500.925 240.8L501.692 240.58L501.278 242.154Z"/><path fill="#F5A624" d="M328.288 590.037C331.98 588.936 343.044 590.553 347.19 591.476C345.164 592.64 345.047 592.617 342.667 592.841L339.509 593.119C337.023 592.12 331.347 590.913 328.288 590.037Z"/><defs><linearGradient id="gradient_11" gradientUnits="userSpaceOnUse" x1="317.58475" y1="617.94708" x2="333.42908" y2="575.19586"><stop offset="0" stop-color="#562F08"/><stop offset="1" stop-color="#AE660F"/></linearGradient></defs><path fill="url(#gradient_11)" d="M157.009 509.996C158.619 511.42 159.964 512.948 161.969 513.482C163.465 512.983 163.064 513.44 163.728 512.433C164.932 512.638 164.984 512.749 166.081 513.333C168.941 515.365 174.544 520.434 177.372 522.874C178.22 523.477 180.534 525.049 181.173 525.668C184.258 527.978 187.459 530.463 190.671 532.559C199.984 538.127 208.813 544.303 218.406 549.548C241.717 562.295 266.954 572.096 292.067 580.691C296.936 582.358 310.918 586.79 315.562 587.28C319.77 588.351 324.015 589.271 328.288 590.037C331.347 590.913 337.023 592.12 339.509 593.119C352.483 597.323 363.943 598.034 376.651 600.866C396.18 605.217 414.185 608.919 434.039 612.119C458.713 615.587 477.625 618.039 502.525 618.017C502.765 624.687 503.077 631.479 503.224 638.14C503.491 642.99 503.487 647.304 503.463 652.141C502.955 650.084 503.023 650.087 501.906 648.338C499.312 646.465 493.97 647.327 490.626 647.221C450.654 645.606 408.889 643.597 369.91 633.828C336.819 625.534 298.528 613.221 267.213 599.427C239.748 587.33 210.839 567.806 188.61 547.963C179.441 539.78 169.474 530.331 160.836 521.565C157.967 518.725 156.019 516.466 153.6 513.278L154.372 512.955C154.57 512.076 154.535 512.313 155.032 511.51L155.967 511.322L155.951 510.865L157.009 509.996Z"/><defs><linearGradient id="gradient_12" gradientUnits="userSpaceOnUse" x1="467.08478" y1="627.2879" x2="474.08102" y2="608.48425"><stop offset="0" stop-color="#AB640E"/><stop offset="1" stop-color="#D07C11"/></linearGradient></defs><path fill="url(#gradient_12)" d="M434.039 612.119C458.713 615.587 477.625 618.039 502.525 618.017C502.765 624.687 503.077 631.479 503.224 638.14C502.02 638.573 501.184 638.041 499.657 637.642C492.956 636.998 483.375 638.005 477.285 637.064L475.941 636.725C478.705 636.209 488.529 636.48 491.848 636.5L490.268 635.577C487.376 633.919 487.013 633.539 484.622 631.319C486.942 630.957 489.304 630.715 491.639 630.446C486.27 629.623 482.873 630.889 477.837 631.003C468.313 631.219 458.407 631.754 449.245 629.192L449.007 628.728L451.314 627.798C454.017 627.231 465.416 627.482 468.726 627.5C462.392 625.033 438.722 616.081 434.061 613.262L434.039 612.119Z"/><path fill="#9B5A13" d="M451.314 627.798C459.015 629.312 493.004 627.888 496.713 629.714C495.367 630.519 493.175 630.512 491.639 630.446C486.27 629.623 482.873 630.889 477.837 631.003C468.313 631.219 458.407 631.754 449.245 629.192L449.007 628.728L451.314 627.798Z"/><path fill="#C87218" d="M157.009 509.996C158.619 511.42 159.964 512.948 161.969 513.482C163.465 512.983 163.064 513.44 163.728 512.433C164.932 512.638 164.984 512.749 166.081 513.333C168.941 515.365 174.544 520.434 177.372 522.874C174.976 522.291 174.075 520.668 171.914 520.698L173.016 522.394L172.841 522.772C169.92 521.272 167.527 518.378 164.464 517.327C162.416 516.623 162.876 516.136 161.174 515.227L160.349 516.656C161.722 519.245 162.225 518.943 160.836 521.565C157.967 518.725 156.019 516.466 153.6 513.278L154.372 512.955C154.57 512.076 154.535 512.313 155.032 511.51L155.967 511.322L155.951 510.865L157.009 509.996Z"/><path fill="#9B5A13" d="M153.6 513.278L154.372 512.955C156.668 515.319 157.636 515.004 161.174 515.227L160.349 516.656C161.722 519.245 162.225 518.943 160.836 521.565C157.967 518.725 156.019 516.466 153.6 513.278Z"/><path fill="#562F05" d="M477.285 637.064C483.375 638.005 492.956 636.998 499.657 637.642C498.322 638.655 496.974 639.65 495.613 640.627C492.181 640.964 478.505 639.402 475.244 638.011L475.327 637.573L477.285 637.064Z"/><path fill="#562F05" d="M181.173 525.668C184.258 527.978 187.459 530.463 190.671 532.559C191.769 534.367 193.338 535.664 193.802 537.657L192.986 537.812C190.786 536.288 181.934 531.095 181.177 529.621C181.445 527.965 181.391 527.726 181.223 526.118L181.173 525.668Z"/><path fill="#FEFEFE" d="M707.758 796.656C738.759 793.252 763.761 810.395 765.815 842.695C767.069 862.405 763.98 872.91 751.18 887.766C758.028 896.433 765.416 904.605 772.271 913.408C765.267 913.343 758.162 913.326 751.168 913.079C748.392 912.981 746.37 913.128 744.609 911.185C741.286 906.506 738.724 902.876 734.965 898.521C717.532 902.857 699.309 902.403 684.312 891.361C661.158 874.314 658.88 836.459 674.906 813.948C682.55 803.211 695.227 798.584 707.758 796.656Z"/><path d="M713.395 813.686C736.09 813.091 746.726 830.158 746.066 851.052C745.807 859.23 744.29 867.072 738.078 872.938C736.68 871.485 735.228 869.603 733.936 868.017L714.942 868.03C717.352 871.939 719.415 874.911 722.124 878.629L724.991 882.453C698.475 886.457 683.095 870.768 684.831 844.369C686.032 826.113 695.216 816.305 713.395 813.686Z"/><path fill="#FEFEFE" d="M224.101 796.736C252.747 792.539 279.369 812.365 283.554 841.013C287.739 869.661 267.9 896.274 239.25 900.446C210.619 904.614 184.027 884.791 179.845 856.162C175.663 827.533 195.474 800.932 224.101 796.736Z"/><path d="M228.077 813.628C244.008 812.442 257.221 820.642 260.812 836.549C265.865 858.921 259.941 877.902 235.821 883.264C218.045 884.535 204.957 875.381 201.945 857.935C198.314 836.908 205.595 817.821 228.077 813.628Z"/><path fill="#FEFEFE" d="M359.669 836.651C360.801 835.011 362.003 833.371 363.313 831.88C371.892 822.077 393.009 821.163 402.27 830.29C408.168 836.101 409.792 846.05 409.931 854.019C410.199 869.35 409.806 884.736 409.691 900.079L391.581 900.101L391.578 869.993C391.574 863.003 392.567 850.518 388.517 844.759C384.674 839.293 371.445 838.751 366.747 843.652C362.35 848.238 362.015 854.473 362.117 860.554C362.397 870.069 362.425 879.59 362.428 889.125L362.507 900.24C356.366 900.028 349.647 900.121 343.461 900.093C343.331 890.84 343.317 881.585 343.418 872.332C343.524 860.074 346.443 839.789 329.382 839.987C311.089 840.198 313.922 860.444 314.095 872.832L314.419 900.098C308.116 900.083 301.813 900.132 295.51 900.243L295.445 825.313C301.525 825.239 307.999 825.408 314.109 825.463L314.137 835.64C320.067 828.366 325.037 825.291 334.485 824.192C345.888 823.486 353.223 827.493 359.669 836.651Z"/><path fill="#FEFEFE" d="M608.734 796.642C620.68 795.38 634.986 796.694 644.255 805.157C651.98 812.211 652.8 819.784 653.258 829.49L636.236 829.491C633.98 817.084 627.46 811.417 614.483 811.768C611.005 811.862 603.239 814.297 601.366 817.433C590.535 835.567 618.309 838.997 629.44 842.386C652.165 847.749 662.745 869.578 649.01 889.294C643.97 896.53 631.567 899.891 622.625 900.719C622.157 900.765 621.688 900.804 621.218 900.836C596.96 902.482 578.492 893.597 577.43 867.015L595.855 866.998C598.631 882.026 606.907 885.893 621.978 884.031C625.942 883.541 631.303 881.367 633.283 877.689C644.907 856.1 601.876 858.147 591.915 848.989C586.181 845.075 581.736 839.888 580.609 832.566C577.319 811.186 588.418 799.978 608.734 796.642Z"/><path fill="#FEFEFE" d="M463.944 824.185L464.837 824.152C494.063 823.141 493.522 845.133 493.518 867.379C493.516 878.205 493.512 889.251 493.495 900.094L474.893 900.108C474.806 884.438 475.494 868.952 474.595 853.297C473.811 839.645 457.946 836.444 449.165 843.823C442.953 851.806 444.342 865.415 444.44 875.011L444.495 900.094L425.915 900.112C425.205 875.769 425.501 849.753 425.723 825.389C431.296 824.869 438.426 824.992 443.999 825.137L444.033 836.011C449.759 828.872 454.554 825.482 463.944 824.185Z"/><path fill="#FEFEFE" d="M780.541 797.598C786.766 797.478 793.714 797.694 799.993 797.758C799.985 824.83 799.423 855.58 800.329 882.41L843.992 882.455L843.993 899.986L780.889 900.001L780.541 797.598Z"/><path fill="#FEFEFE" d="M509.163 825.007L527.573 825.021L527.992 899.986L509.148 899.999C508.809 875.003 508.814 850.003 509.163 825.007Z"/><path fill="#FEFEFE" d="M502.493 610.694C504.752 610.67 506.869 610.347 508.738 611.422C510.054 613.294 509.576 616.287 509.55 618.779L509.402 628.955C511.975 628.426 513.538 628.464 516.137 628.398C516.26 632.796 516.501 637.653 516.479 642.016C516.509 645.013 516.734 651.055 516.369 653.796C514.946 650.56 517.495 652.813 515.509 650.101C508.352 647.724 510.539 653.005 508.929 657.167C508.181 662.091 508.057 671.776 507.868 676.999C507.407 690.585 507.101 704.176 506.95 717.769C506.69 719.306 506.404 720.594 506.421 722.159L506.068 722.217C505.896 721.489 505.784 720.984 505.554 720.269C505.551 712.018 504.921 703.065 504.633 694.749L503.463 652.141C503.487 647.304 503.491 642.99 503.224 638.14C503.077 631.479 502.765 624.687 502.525 618.017L502.493 610.694Z"/><path fill="#9B5A13" d="M509.402 628.955C511.975 628.426 513.538 628.464 516.137 628.398C516.26 632.796 516.501 637.653 516.479 642.016C514.298 639.84 511.461 641.309 509.017 642.251C508.955 637.824 509.207 633.38 509.402 628.955Z"/><path fill="#562F05" d="M509.017 642.251C511.461 641.309 514.298 639.84 516.479 642.016C516.509 645.013 516.734 651.055 516.369 653.796C514.946 650.56 517.495 652.813 515.509 650.101C508.352 647.724 510.539 653.005 508.929 657.167C508.459 654.354 508.904 645.566 509.017 642.251Z"/><path fill="#FEFEFE" d="M515.888 613.927C516.201 611.669 516.092 610.844 518.927 610.364C523.079 611.18 522.763 613.374 522.622 616.775C522.114 628.239 521.291 643.414 521.592 654.781C520.817 676.632 520.269 698.491 519.947 720.353L519.329 723.994L518.586 724.365C518.26 702.721 517.826 675.021 516.369 653.796C516.734 651.055 516.509 645.013 516.479 642.016C516.501 637.653 516.26 632.796 516.137 628.398C513.538 628.464 511.975 628.426 509.402 628.955L509.55 618.779C509.912 616.933 509.885 616.061 511.179 614.707C512.862 613.774 513.959 613.952 515.888 613.927Z"/><path fill="#E58F1E" d="M509.55 618.779C509.912 616.933 509.885 616.061 511.179 614.707C512.862 613.774 513.959 613.952 515.888 613.927C516.009 618.75 516.092 623.574 516.137 628.398C513.538 628.464 511.975 628.426 509.402 628.955L509.55 618.779Z"/><path fill="#FEFEFE" d="M517.677 791.228C523.738 790.719 529.078 795.188 529.646 801.244C530.213 807.3 525.797 812.683 519.747 813.31C513.612 813.946 508.138 809.454 507.562 803.314C506.987 797.173 511.531 791.743 517.677 791.228Z"/><path fill="#7C7F83" d="M518.561 63.3198C518.383 60.5041 518.235 55.8706 519.025 53.1998C520.022 59.3298 520.289 73.2117 519.938 79.5964C519.968 82.006 520.125 86.2463 519.944 88.5312C519.621 87.157 519.357 81.9236 519.202 80.0054L518.548 79.6093C518.147 76.6965 518.512 66.8964 518.561 63.3198Z"/><path fill="#2B2B2E" d="M518.561 63.3198C518.383 60.5041 518.235 55.8706 519.025 53.1998C520.022 59.3298 520.289 73.2117 519.938 79.5964C519.362 73.4015 519.476 66.954 519.222 60.7132L518.561 63.3198Z"/><path fill="#7C7F83" d="M505.554 720.269C505.784 720.984 505.896 721.489 506.068 722.217L506.421 722.159C506.404 720.594 506.69 719.306 506.95 717.769C507.024 724.734 506.491 731.587 506.435 738.519L505.549 733.723C505.52 729.239 505.521 724.754 505.554 720.269Z"/><path fill="#7C7F83" d="M506.387 61.9927C506.525 69.3614 506.58 76.7315 506.552 84.1015L505.451 85.001C505.375 80.0122 505.552 74.3505 505.607 69.317C506.413 67.134 506.304 64.3862 506.387 61.9927Z"/><path fill="#7C7F83" d="M519.947 720.353C520.047 725.049 520.011 729.747 519.84 734.442C518.994 733.473 518.89 731.173 518.607 729.647C518.538 727.945 518.58 726.085 518.586 724.365L519.329 723.994L519.947 720.353Z"/><path fill="#2B2B2E" d="M505.607 69.317C505.217 64.6216 505.56 59.3245 505.829 54.6005L506.114 54.8675C506.551 58.0306 506.537 58.9022 506.387 61.9927C506.304 64.3862 506.413 67.134 505.607 69.317Z"/><path fill="#2B2B2E" d="M518.607 729.647C518.89 731.173 518.994 733.473 519.84 734.442C519.602 735.676 519.253 742.816 518.949 745.238C518.366 741.807 518.365 733.307 518.607 729.647Z"/><path fill="#2B2B2E" d="M505.549 733.723L506.435 738.519C506.549 741.413 506.492 743.233 506.33 746.096L506.239 746.105C505.124 742.504 505.454 737.521 505.549 733.723Z"/><path fill="#562F05" d="M125.073 481.333C125.596 484.06 126.389 486.653 126.299 489.342C124.955 486.731 124.495 484.812 123.693 482.027L125.073 481.333Z"/></svg>